<svg width="61" height="61" viewBox="0 0 61 61" fill="none" xmlns="http://www.w3.org/2000/svg">
<path d="M30.0371 60.4209C46.6056 60.4209 60.0371 46.9894 60.0371 30.4209C60.0371 13.8524 46.6056 0.420898 30.0371 0.420898C13.4686 0.420898 0.0371094 13.8524 0.0371094 30.4209C0.0371094 46.9894 13.4686 60.4209 30.0371 60.4209Z" fill="#1B75BC"/>
<path d="M33.112 41.0872H28.4483C23.1685 41.0872 18.873 36.7964 18.873 31.5224V21.9283C18.873 15.9557 23.7373 11.0967 29.7165 11.0967H31.8437C37.823 11.0967 42.6872 15.9557 42.6872 21.9283V31.5224C42.6872 36.7964 38.3918 41.0872 33.112 41.0872Z" fill="#F89A76"/>
<path d="M31.8429 11.0967H30.7793V41.0872H33.1111C38.391 41.0872 42.6864 36.7964 42.6864 31.5224V21.9283C42.6864 15.9557 37.8222 11.0967 31.8429 11.0967Z" fill="#EF5F3C"/>
<path d="M44.779 48.9794H16.7798C16.1667 48.9794 15.6699 48.4831 15.6699 47.8707V47.0415C15.6699 39.9483 21.4469 34.1777 28.5478 34.1777H33.0109C40.1119 34.1777 45.8888 39.9483 45.8888 47.0415V47.8707C45.8888 48.4831 45.392 48.9794 44.779 48.9794Z" fill="#ECEFF1"/>
<path d="M33.0108 34.1777H30.7793V48.9794H44.7789C45.3919 48.9794 45.8887 48.4831 45.8887 47.8707V47.0415C45.8887 39.9483 40.1118 34.1777 33.0108 34.1777Z" fill="white"/>
<path d="M30.7784 39.3744C28.5217 39.3744 26.6855 37.5406 26.6855 35.2862V32.3064C26.6855 31.6943 27.1824 31.1978 27.7954 31.1978H33.7614C34.3744 31.1978 34.8712 31.6943 34.8712 32.3064V35.2862C34.8712 37.5406 33.0353 39.3744 30.7784 39.3744Z" fill="#FFE5C2"/>
<path d="M33.7623 31.1978H30.7793V39.3744C33.036 39.3744 34.8721 37.5406 34.8721 35.2862V32.3064C34.8721 31.6943 34.3753 31.1978 33.7623 31.1978Z" fill="#FED2A4"/>
<path d="M30.7794 33.5447C26.3952 33.5447 22.8281 29.9823 22.8281 25.6033V24.4984C22.8281 24.127 22.855 23.7504 22.9082 23.3793C22.9432 23.1333 23.2195 22.9903 23.4414 23.1024C23.9706 23.3689 24.5651 23.5044 25.2082 23.5044C26.5334 23.5044 27.914 22.9244 28.9961 21.9134C30.4433 20.5616 31.1277 18.6402 30.7398 17.0182C30.6756 16.7506 30.8987 16.5974 31.1144 16.5645C33.1603 16.6506 35.0748 17.5162 36.5055 19.0021C37.9402 20.4922 38.7304 22.444 38.7304 24.4984V25.6033C38.7306 29.9823 35.1635 33.5447 30.7794 33.5447Z" fill="#FFF3DE"/>
<path d="M36.5061 19.0021C35.0754 17.5162 33.1609 16.6506 31.115 16.5645C30.7632 16.6228 30.6517 16.8384 30.78 17.2081C30.8707 17.6954 30.8679 18.2096 30.78 18.7211V33.5447C35.1644 33.5447 38.7312 29.9823 38.7312 25.6033V24.4984C38.7312 22.444 37.9408 20.492 36.5061 19.0021Z" fill="#FFE5C2"/>
<path d="M30.7801 26.9712C27.9914 26.9712 25.4717 27.8082 23.6699 29.155C24.9772 31.7556 27.6732 33.545 30.7801 33.545C33.8871 33.545 36.5828 31.7556 37.8903 29.155C36.0886 27.8082 33.5689 26.9712 30.7801 26.9712Z" fill="#006DB1"/>
<path d="M30.7793 26.9712V33.545C33.8863 33.545 36.582 31.7556 37.8895 29.155C36.0877 27.8082 33.5681 26.9712 30.7793 26.9712Z" fill="#097DC9"/>
</svg>
