<svg width="61" height="61" viewBox="0 0 61 61" fill="none" xmlns="http://www.w3.org/2000/svg">
<path d="M30.0351 60.418C46.6037 60.418 60.0352 46.9865 60.0352 30.418C60.0352 13.8494 46.6037 0.417969 30.0351 0.417969C13.4666 0.417969 0.0351562 13.8494 0.0351562 30.418C0.0351562 46.9865 13.4666 60.418 30.0351 60.418Z" fill="#1B75BC"/>
<path d="M35.5995 29.7041C37.7022 29.7041 39.4703 28.1988 39.8526 26.12C40.6889 21.2696 40.5216 16.6103 37.6783 15.0333C35.1933 13.6713 34.142 17.1598 30.1039 17.1598C26.0658 17.1598 25.6358 13.5519 22.5295 15.0333C19.5667 16.443 19.3995 21.1979 20.2835 26.1439C20.6658 28.1988 22.434 29.7041 24.5127 29.7041H35.5995Z" fill="white"/>
<path d="M24.8008 32.2832H35.2663L33.7849 47.3841H26.1388L24.8008 32.2832Z" fill="white"/>
<path fill-rule="evenodd" clip-rule="evenodd" d="M36.9803 39.0166L22.2617 33.3537L23.0848 31.2153L37.8035 36.8782L36.9803 39.0166Z" fill="#1B75BC"/>
<path fill-rule="evenodd" clip-rule="evenodd" d="M36.9803 44.0825L22.2617 38.4196L23.0848 36.2812L37.8035 41.9441L36.9803 44.0825Z" fill="#1B75BC"/>
<path fill-rule="evenodd" clip-rule="evenodd" d="M36.9803 49.3388L22.2617 43.676L23.0848 41.5376L37.8035 47.2005L36.9803 49.3388Z" fill="#1B75BC"/>
</svg>
