<svg width="61" height="61" viewBox="0 0 61 61" fill="none" xmlns="http://www.w3.org/2000/svg">
<path d="M30.8965 60.0234C47.465 60.0234 60.8965 46.592 60.8965 30.0234C60.8965 13.4549 47.465 0.0234375 30.8965 0.0234375C14.3279 0.0234375 0.896484 13.4549 0.896484 30.0234C0.896484 46.592 14.3279 60.0234 30.8965 60.0234Z" fill="#1B75BC"/>
<path d="M38.5586 26.1939C38.5586 24.0912 44.3254 24.112 44.3254 26.1731V28.255C44.3254 31.8983 38.5586 31.3778 38.5586 28.255V26.1939Z" fill="white"/>
<path d="M41.5971 31.3147C39.8692 31.3147 38.0371 30.2529 38.0371 28.2543V26.1932C38.0371 25.5062 38.4535 24.9233 39.2238 24.5485C39.8067 24.2571 40.5978 24.1113 41.4306 24.1113C43.0753 24.1113 44.8241 24.7567 44.8241 26.1932V28.2751C44.8449 30.3778 43.221 31.3147 41.5971 31.3147ZM41.4306 25.1523C40.7644 25.1523 40.119 25.2772 39.6818 25.4854C39.2862 25.6727 39.0781 25.9226 39.0781 26.1932V28.2543C39.0781 29.5659 40.3896 30.2737 41.5971 30.2737C42.6589 30.2737 43.7831 29.7324 43.7831 28.2543V26.1724C43.8039 25.527 42.5964 25.1523 41.4306 25.1523Z" fill="#1B75BC"/>
<path d="M35.8516 26.776C35.8516 23.903 41.6184 23.9238 41.6184 26.7552V29.6074C41.7017 31.8558 35.9557 31.7517 35.8516 29.6074V26.776Z" fill="white"/>
<path d="M38.8486 31.5843C37.2455 31.5843 35.6009 30.9389 35.5176 29.6482V26.796C35.5176 26.0257 35.8715 25.3595 36.5585 24.9223C37.1415 24.5475 37.8909 24.3394 38.7237 24.3394C40.3059 24.3394 41.909 25.1721 41.909 26.796V29.6482C41.9506 30.7516 40.8472 31.5219 39.0984 31.6051C39.036 31.5843 38.9319 31.5843 38.8486 31.5843ZM38.7237 24.9431C38.0367 24.9431 37.3705 25.1097 36.9124 25.4219C36.4128 25.755 36.1421 26.2131 36.1421 26.7752V29.6065C36.1838 30.5017 37.7244 31.0014 39.0776 30.9389C40.2018 30.8973 41.326 30.4601 41.2844 29.6274V26.7543C41.3052 25.5052 39.9728 24.9431 38.7237 24.9431Z" fill="#1B75BC"/>
<path d="M24.4836 26.191C24.4836 24.0883 18.7168 24.1091 18.7168 26.1701V28.252C18.7168 31.8953 24.4836 31.3749 24.4836 28.252V26.191Z" fill="white"/>
<path d="M21.4437 31.3135C20.7983 31.3135 20.153 31.1678 19.6325 30.8555C18.7165 30.3142 18.2168 29.3982 18.2168 28.2531V26.1712C18.2168 24.7347 19.9864 24.0894 21.6103 24.0894C22.443 24.0894 23.2341 24.2559 23.8171 24.5266C24.5874 24.9013 25.0038 25.4842 25.0038 26.1712V28.2323C25.0038 29.2733 24.4416 30.2101 23.484 30.7514C22.8802 31.147 22.1516 31.3135 21.4437 31.3135ZM21.6103 25.1511C20.4444 25.1511 19.2577 25.5467 19.2577 26.1921V28.2739C19.2577 29.0442 19.57 29.6272 20.153 29.9811C20.9233 30.4391 22.1099 30.3975 22.9635 29.8978C23.4215 29.6272 23.9628 29.1275 23.9628 28.2739V26.2129C23.9628 25.9422 23.7546 25.6924 23.3591 25.505C22.9219 25.276 22.2765 25.1511 21.6103 25.1511Z" fill="#1B75BC"/>
<path d="M27.1907 26.7755C27.1907 23.9025 21.4238 23.9233 21.4238 26.7547V29.6069C21.4238 32.0635 27.1907 32.0427 27.1907 29.6069V26.7755Z" fill="white"/>
<path d="M24.2966 31.7725C23.4847 31.7725 22.7352 31.6059 22.1731 31.2728C21.4861 30.8773 21.1113 30.2944 21.1113 29.6281V26.776C21.1113 25.1729 22.7144 24.3193 24.2966 24.3193C25.1086 24.3193 25.8789 24.5275 26.4618 24.9023C27.1488 25.3603 27.5027 26.0057 27.5027 26.776V29.6073C27.5027 31.0855 25.858 31.7725 24.2966 31.7725ZM24.3174 24.9439C23.0891 24.9439 21.7567 25.506 21.7567 26.776V29.6281C21.7567 31.6476 26.899 31.6268 26.899 29.6281V26.7968C26.899 26.2347 26.6491 25.7767 26.1287 25.4436C25.6707 25.1105 25.0045 24.9439 24.3174 24.9439Z" fill="#1B75BC"/>
<path d="M31.3125 26.775C31.3125 23.5897 37.0793 23.5272 37.0793 26.7541V31.0845C37.0793 32.6875 31.3125 32.6875 31.3125 31.0845V26.775Z" fill="white"/>
<path d="M34.1853 32.6038C32.6031 32.6038 31 32.1249 31 31.084V26.7745C31 25.8168 31.4788 25.0257 32.3324 24.526C33.4566 23.8806 34.9972 23.8806 36.1006 24.526C36.9334 25.0049 37.3914 25.796 37.3914 26.7537V31.084C37.3914 32.1249 35.7883 32.6038 34.1853 32.6038ZM31.6246 26.7745V31.084C31.6246 31.5836 32.7696 31.9792 34.1853 31.9792C35.601 31.9792 36.746 31.5836 36.746 31.084V26.7537C36.746 25.8168 36.2255 25.3171 35.7675 25.0673C34.8723 24.5468 33.5399 24.5468 32.6239 25.0673C32.1867 25.338 31.6246 25.8376 31.6246 26.7745Z" fill="#1B75BC"/>
<path d="M25.545 26.7759C25.5242 23.6114 31.291 23.5906 31.3118 26.7551V31.0854C31.3118 32.6884 25.545 32.6884 25.545 31.0854V26.7759Z" fill="white"/>
<path d="M28.4392 32.6046C26.857 32.6046 25.2539 32.1258 25.2539 31.0848V26.7753C25.2539 25.0057 26.857 24.0897 28.4392 24.0688C28.4392 24.0688 28.4392 24.0688 28.46 24.0688C30.0422 24.0688 31.6453 24.9849 31.6453 26.7337V31.064C31.6245 32.1258 30.0214 32.6046 28.4392 32.6046ZM28.4392 24.7142C28.4392 24.7142 28.4184 24.7142 28.4392 24.7142C27.1901 24.7142 25.8577 25.3596 25.8577 26.7753V31.0848C25.8577 31.5845 27.0027 31.98 28.4184 31.98C29.8341 31.98 30.9791 31.5845 30.9791 31.0848V26.7545C30.9999 25.3388 29.6675 24.7142 28.4392 24.7142Z" fill="#1B75BC"/>
<path d="M24.4836 38.6009C24.4836 41.0159 18.7168 40.995 18.7168 38.6217V36.7688C18.7168 33.5419 24.4836 33.9999 24.4836 36.7688V38.6009Z" fill="white"/>
<path d="M21.6111 40.704C20.0913 40.704 18.4258 40.0586 18.4258 38.6221V36.7692C18.4258 35.874 18.8422 35.1245 19.6125 34.6873C20.695 34.0627 22.3397 34.0836 23.5056 34.7706C24.3175 35.2494 24.7755 35.9573 24.7755 36.79V38.6221C24.7755 39.2883 24.4008 39.8504 23.7138 40.2251C23.1725 40.5374 22.4022 40.704 21.6111 40.704ZM21.4445 34.833C20.8824 34.833 20.3411 34.958 19.9247 35.2078C19.5084 35.4368 19.0295 35.9156 19.0295 36.79V38.6429C19.0295 40.1627 22.1107 40.475 23.4639 39.7255C23.9636 39.4548 24.2134 39.0801 24.2134 38.6221V36.79C24.2134 36.0197 23.6721 35.5409 23.2349 35.2911C22.6936 34.9788 22.0691 34.833 21.4445 34.833Z" fill="#1B75BC"/>
<path d="M27.1907 38.5597C27.1907 41.4327 21.4238 41.4119 21.4238 38.5805V35.7283C21.4238 33.4382 27.1907 33.4382 27.1907 35.7283V38.5597Z" fill="white"/>
<path d="M24.3181 41.0169C22.7359 41.0169 21.1328 40.1841 21.1328 38.5602V35.6872C21.1328 34.2924 22.7983 33.647 24.3181 33.647C25.8587 33.647 27.5034 34.2924 27.5034 35.6872V38.5186C27.5034 39.2889 27.1495 39.9551 26.4624 40.3923C25.9003 40.8087 25.13 41.0169 24.3181 41.0169ZM24.3181 34.3132C23.0481 34.3132 21.7574 34.792 21.7574 35.7289V38.6019C21.7574 39.851 23.0898 40.4339 24.3181 40.4339C25.0051 40.4339 25.6713 40.2674 26.1293 39.9551C26.629 39.622 26.8996 39.164 26.8996 38.6019V35.7705C26.8996 35.3541 26.6498 35.021 26.171 34.7504C25.6713 34.4381 25.0051 34.3132 24.3181 34.3132Z" fill="#1B75BC"/>
<path d="M38.5586 38.5778C38.5586 40.8471 44.3462 41.0969 44.3254 38.5987V36.7666C44.3254 33.5813 38.5586 34.0185 38.5586 36.7666V38.5778Z" fill="white"/>
<path d="M41.5563 40.6611C40.7444 40.6611 39.9116 40.4737 39.287 40.1198C38.6208 39.745 38.2461 39.1829 38.2461 38.5584V36.7471C38.2461 35.1024 39.9741 34.228 41.5771 34.228C43.0761 34.228 44.575 35.0191 44.575 36.7471V38.5792C44.575 39.2454 44.2419 39.7867 43.5965 40.1614C43.0761 40.4945 42.3266 40.6611 41.5563 40.6611ZM38.8498 38.5792C38.8498 39.0996 39.2454 39.4327 39.5785 39.6201C40.6194 40.203 42.3682 40.2447 43.3467 39.6826C43.8047 39.4119 44.0337 39.058 44.0337 38.6V36.7679C44.0337 35.3314 42.7221 34.8318 41.6187 34.8318C40.2655 34.8318 38.8707 35.5604 38.8707 36.7679V38.5792H38.8498Z" fill="#1B75BC"/>
<path d="M35.8516 38.5593C35.8516 41.4323 41.6184 41.4114 41.6184 38.5801V35.7279C41.6184 33.4586 35.8516 33.3962 35.8516 35.7279V38.5593Z" fill="white"/>
<path d="M38.7237 41.0157C37.9118 41.0157 37.1415 40.8076 36.5585 40.4328C35.8715 39.9748 35.5176 39.3294 35.5176 38.5591V35.7277C35.5176 34.3329 37.1623 33.6875 38.682 33.6875C40.2435 33.6875 41.909 34.3329 41.909 35.7277V38.6008C41.9298 40.183 40.3059 41.0157 38.7237 41.0157ZM38.7029 34.2912C37.4329 34.2912 36.163 34.7701 36.163 35.7069V38.5383C36.163 39.1004 36.4128 39.5584 36.9333 39.8915C37.3913 40.2038 38.0575 40.3704 38.7445 40.3704C39.9728 40.3704 41.3052 39.8082 41.3052 38.5383V35.6653C41.3052 34.7909 39.9936 34.2912 38.7029 34.2912Z" fill="#1B75BC"/>
<path d="M31.7297 38.8309C31.7297 41.6415 25.9629 41.6206 25.9629 38.8517V35.1043C25.9629 32.9392 31.7297 32.9392 31.7297 35.1043V38.8309Z" fill="white"/>
<path d="M28.8565 41.2663C28.0446 41.2663 27.2743 41.0581 26.6913 40.6834C26.0043 40.2462 25.6504 39.6008 25.6504 38.8513V35.1039C25.6504 33.7715 27.3159 33.147 28.8565 33.147C30.3971 33.147 32.0626 33.7507 32.0626 35.1039V38.8305C32.0626 40.5169 30.3971 41.2663 28.8565 41.2663ZM28.8565 33.8132C27.5865 33.8132 26.2958 34.2504 26.2958 35.1039V38.8513C26.2958 40.0588 27.6282 40.6001 28.8565 40.6001C30.0848 40.6001 31.4172 40.038 31.4172 38.8305V35.1039C31.4172 34.7292 31.1674 34.4169 30.6886 34.1671C30.2097 33.9381 29.5435 33.8132 28.8565 33.8132Z" fill="#1B75BC"/>
<path d="M37.4973 38.8299C37.4973 41.6613 31.7305 41.6197 31.7305 38.8508V35.1034C31.7305 32.9382 37.4973 32.9382 37.4973 35.1034V38.8299Z" fill="white"/>
<path d="M34.6241 41.2864C33.8954 41.2864 33.1668 41.1198 32.5838 40.7867C31.8343 40.3495 31.418 39.6625 31.418 38.8714V35.124C31.418 33.7916 33.0835 33.167 34.6241 33.167C36.1647 33.167 37.8302 33.7707 37.8302 35.124V38.8505C37.8302 39.6625 37.4138 40.3495 36.6435 40.7867C36.0606 41.1198 35.3527 41.2864 34.6241 41.2864ZM34.6033 33.8124C33.3333 33.8124 32.0425 34.2496 32.0425 35.1031V38.8505C32.0425 39.5584 32.5006 39.9748 32.8961 40.2038C33.8538 40.7659 35.3527 40.7659 36.3104 40.2246C36.706 39.9956 37.164 39.5792 37.164 38.8505V35.124C37.164 34.7492 36.9142 34.4369 36.4353 34.1871C35.9773 33.9373 35.3111 33.8124 34.6033 33.8124Z" fill="#1B75BC"/>
<path d="M43.5124 24.5263C43.3667 24.5263 43.2418 24.5055 43.0961 24.443C38.8074 22.611 22.1106 22.5694 19.2793 24.3598C18.8004 24.6721 18.155 24.5263 17.8428 24.0475C17.5305 23.5687 17.6762 22.9233 18.155 22.611C21.84 20.2585 39.3278 20.5707 43.908 22.5277C44.4285 22.7567 44.6783 23.3605 44.4493 23.9018C44.3035 24.2973 43.9288 24.5263 43.5124 24.5263Z" fill="white"/>
<path d="M30.8133 43.9098C27.4406 43.9098 24.2761 43.8474 21.9236 43.7641C18.0305 43.5976 16.9062 43.4935 16.9062 42.2652C16.9062 41.474 17.9472 40.9952 18.5509 41.4116C20.9867 41.9737 40.6189 41.9737 43.0548 41.4116C43.6585 40.9744 44.6994 41.4532 44.6994 42.2652C44.6994 43.431 44.6994 43.9098 30.8133 43.9098Z" fill="white"/>
<path d="M13.6386 17.1165C14.2216 16.5336 15.2209 14.2227 15.2209 14.2227C15.2209 14.2227 16.2202 16.5336 16.8031 17.0957C17.386 17.6786 19.6761 18.6779 19.6761 18.6779C19.6761 18.6779 17.386 19.6772 16.8031 20.2601C16.2202 20.8431 15.2209 23.154 15.2209 23.154C15.2209 23.154 14.2216 20.8431 13.6386 20.2601C13.0765 19.6772 10.7656 18.6987 10.7656 18.6987C10.7656 18.6987 13.0765 17.6994 13.6386 17.1165Z" fill="white"/>
</svg>
