<svg width="61" height="61" viewBox="0 0 61 61" fill="none" xmlns="http://www.w3.org/2000/svg">
<path d="M30.8945 60.5928C47.4631 60.5928 60.8945 47.1613 60.8945 30.5928C60.8945 14.0242 47.4631 0.592773 30.8945 0.592773C14.326 0.592773 0.894531 14.0242 0.894531 30.5928C0.894531 47.1613 14.326 60.5928 30.8945 60.5928Z" fill="#1B75BC"/>
<path d="M39.8116 20.4657C37.0627 18.9591 35.8996 22.8182 31.4326 22.8182C26.9655 22.8182 26.4897 18.8269 23.0535 20.4657C15.441 24.0605 24.428 47.5589 26.3311 47.5589C28.2342 47.5589 28.6572 34.8978 31.4326 34.8978C34.208 34.8978 34.6309 47.5589 36.534 47.5589C38.4371 47.5589 47.1863 24.5099 39.8116 20.4657Z" fill="white"/>
<path d="M34.6047 32.1749H28.2345C27.0979 32.1749 26.1992 31.2498 26.1992 30.1397V28.6066C26.1992 27.47 27.1243 26.5713 28.2345 26.5713H34.6047C35.7413 26.5713 36.64 27.4964 36.64 28.6066V30.1397C36.64 31.2498 35.7413 32.1749 34.6047 32.1749Z" fill="#1B75BC"/>
<path d="M45.8123 28.2642H18.1641V30.9074H45.8123V28.2642Z" fill="#1B75BC"/>
<path d="M15.124 16.3959C15.679 15.8409 16.6306 13.647 16.6306 13.647C16.6306 13.647 17.5822 15.8409 18.1373 16.3959C18.6923 16.951 20.8862 17.9026 20.8862 17.9026C20.8862 17.9026 18.6923 18.8541 18.1373 19.4092C17.5822 19.9643 16.6306 22.1582 16.6306 22.1582C16.6306 22.1582 15.679 19.9643 15.124 19.4092C14.5689 18.8541 12.375 17.9026 12.375 17.9026C12.375 17.9026 14.5689 16.951 15.124 16.3959Z" fill="white"/>
</svg>
