<svg width="61" height="61" viewBox="0 0 61 61" fill="none" xmlns="http://www.w3.org/2000/svg">
<path d="M30.5025 60.1621C47.067 60.1621 60.4952 46.7306 60.4952 30.1621C60.4952 13.5936 47.067 0.162109 30.5025 0.162109C13.938 0.162109 0.509766 13.5936 0.509766 30.1621C0.509766 46.7306 13.938 60.1621 30.5025 60.1621Z" fill="#1B75BC"/>
<path d="M47.4236 28.4061C46.4285 24.9978 42.3576 27.1393 38.7692 23.55C35.1506 19.9306 37.9852 16.3413 33.9143 14.8935C24.8678 11.6661 13.1678 37.8469 14.7056 39.3851C16.2435 40.9234 26.7977 31.0302 29.0292 33.2924C31.2606 35.5244 21.4 46.0811 22.9379 47.6194C24.4758 49.1577 50.1074 37.6357 47.4236 28.4061Z" fill="white"/>
<path d="M30.3107 21.7883C30.2279 21.7883 30.145 21.7662 30.0566 21.7165C29.3938 21.3243 29.4103 20.9101 29.4324 20.3302C29.4379 20.2143 29.4435 20.0817 29.4435 19.9381C29.4379 19.8719 29.3164 19.6565 29.2391 19.5294C29.0568 19.2202 28.8966 18.9551 28.9795 18.7286C29.1341 18.2979 29.5374 18.3586 29.8025 18.3973C29.9848 18.4249 30.1561 18.4525 30.2721 18.3752C30.366 18.3144 30.4709 18.077 30.5593 17.8837C30.725 17.5136 30.9128 17.0884 31.3161 17.0884C31.7691 17.0884 32.0287 17.4915 32.2552 17.8505C32.3656 18.0272 32.4816 18.2095 32.5976 18.2979C32.7302 18.4028 32.8849 18.4967 33.034 18.585C33.4539 18.8336 33.9289 19.1208 33.9289 19.7614C33.9289 20.2529 33.476 20.4131 33.1114 20.5401C32.9015 20.6119 32.686 20.6892 32.5811 20.8107C32.4816 20.9212 32.443 21.0316 32.4098 21.1366C32.2441 21.606 31.9845 21.6668 31.1946 21.4348C31.1007 21.4072 30.9902 21.4735 30.8245 21.5784C30.6753 21.6778 30.5041 21.7883 30.3107 21.7883Z" fill="#006DB5"/>
</svg>
