<svg width="61" height="61" viewBox="0 0 61 61" fill="none" xmlns="http://www.w3.org/2000/svg">
<path d="M30.8457 60.7295C47.4142 60.7295 60.8457 47.298 60.8457 30.7295C60.8457 14.1609 47.4142 0.729492 30.8457 0.729492C14.2772 0.729492 0.845703 14.1609 0.845703 30.7295C0.845703 47.298 14.2772 60.7295 30.8457 60.7295Z" fill="#1B75BC"/>
<path d="M35.9821 12.6116C33.941 11.4929 33.0775 14.3583 29.7608 14.3583C26.444 14.3583 26.0908 11.3948 23.5395 12.6116C17.8873 15.2807 24.56 32.7278 25.973 32.7278C27.3861 32.7278 27.7001 23.3271 29.7608 23.3271C31.8214 23.3271 32.1355 32.7278 33.5485 32.7278C34.9615 32.7278 41.4576 15.6339 35.9821 12.6116Z" fill="white"/>
<path d="M23.7131 18.4821C23.6302 18.4821 23.5474 18.46 23.459 18.4103C22.7961 18.0182 22.8127 17.604 22.8348 17.0241C22.8403 16.9081 22.8458 16.7756 22.8458 16.632C22.8403 16.5657 22.7188 16.3503 22.6414 16.2233C22.4591 15.914 22.2989 15.6489 22.3818 15.4225C22.5365 14.9917 22.9397 15.0525 23.2049 15.0911C23.3872 15.1187 23.5584 15.1464 23.6744 15.069C23.7683 15.0083 23.8733 14.7708 23.9617 14.5775C24.1274 14.2075 24.3152 13.7822 24.7184 13.7822C25.1714 13.7822 25.431 14.1854 25.6575 14.5444C25.768 14.7211 25.884 14.9033 26 14.9917C26.1326 15.0966 26.2872 15.1905 26.4364 15.2789C26.8562 15.5274 27.3313 15.8146 27.3313 16.4552C27.3313 16.9468 26.8783 17.1069 26.5137 17.234C26.3038 17.3058 26.0884 17.3831 25.9834 17.5046C25.884 17.615 25.8453 17.7255 25.8122 17.8304C25.6465 18.2999 25.3868 18.3606 24.5969 18.1286C24.503 18.101 24.3925 18.1673 24.2268 18.2722C24.0777 18.3716 23.9064 18.4821 23.7131 18.4821Z" fill="#006DB5"/>
<path d="M27.5868 16.6547C27.6018 16.6397 27.6207 16.6288 27.6456 16.6218C27.8361 16.5729 27.9079 16.6507 28.0086 16.7593C28.0285 16.7813 28.0515 16.8062 28.0774 16.8321C28.0903 16.8431 28.1512 16.86 28.1881 16.869C28.2768 16.8919 28.3536 16.9109 28.3795 16.9667C28.4294 17.0724 28.3456 17.1342 28.2907 17.1751C28.2528 17.2031 28.2169 17.229 28.21 17.2639C28.204 17.2918 28.2279 17.3536 28.2468 17.4045C28.2837 17.5012 28.3266 17.6119 28.2538 17.6847C28.172 17.7665 28.0524 17.7405 27.9467 17.7166C27.8948 17.7047 27.841 17.6927 27.8041 17.6977C27.7612 17.7027 27.7163 17.7137 27.6734 17.7246C27.5528 17.7556 27.4152 17.7895 27.2995 17.6738C27.2108 17.5851 27.2636 17.4744 27.3065 17.3856C27.3315 17.3348 27.3564 17.2819 27.3534 17.241C27.3514 17.2031 27.3385 17.1762 27.3255 17.1513C27.2707 17.0366 27.3066 16.9788 27.491 16.8781C27.513 16.8661 27.521 16.8342 27.5319 16.7853C27.5409 16.7404 27.5519 16.6896 27.5868 16.6547Z" fill="#006DB5"/>
<path d="M34.4714 14.4265C34.4659 14.4061 34.4659 14.3842 34.4723 14.3591C34.5252 14.1697 34.6285 14.1465 34.7729 14.1136C34.8019 14.1073 34.835 14.0999 34.8704 14.0904C34.8863 14.0847 34.9314 14.0405 34.9576 14.013C35.0219 13.9476 35.0767 13.8906 35.138 13.896C35.2544 13.9057 35.2661 14.0092 35.2741 14.0771C35.2793 14.1239 35.2838 14.168 35.3106 14.1915C35.3318 14.2106 35.3973 14.2208 35.4508 14.2298C35.553 14.2462 35.6703 14.2645 35.6969 14.3639C35.7268 14.4756 35.6446 14.5663 35.571 14.6459C35.5347 14.6848 35.4974 14.7254 35.4833 14.7599C35.4662 14.7995 35.4533 14.8439 35.4413 14.8865C35.4078 15.0064 35.3683 15.1426 35.2104 15.1849C35.0891 15.2174 35.0197 15.1163 34.9643 15.0347C34.9327 14.9877 34.8994 14.9397 34.8625 14.9218C34.8287 14.9046 34.7989 14.9024 34.7708 14.9011C34.6441 14.8913 34.612 14.8313 34.617 14.6212C34.6176 14.5962 34.5939 14.5733 34.5571 14.5394C34.5227 14.5092 34.4842 14.4742 34.4714 14.4265Z" fill="#006DB5"/>
<path d="M22.3278 28.385C20.2867 27.2664 19.4232 30.1317 16.1065 30.1317C12.7897 30.1317 12.4365 27.1682 9.88516 28.385C4.23299 31.0541 10.9057 48.5012 12.3187 48.5012C13.7318 48.5012 14.0458 39.1006 16.1065 39.1006C18.1672 39.1006 18.4812 48.5012 19.8942 48.5012C21.3072 48.5012 27.8033 31.4074 22.3278 28.385Z" fill="white"/>
<path d="M49.7434 27.0384C47.589 26.1576 47.0549 29.1022 43.7594 29.4771C40.4639 29.852 39.778 26.9474 37.3805 28.4448C32.0663 31.7356 40.6682 48.3167 42.0722 48.157C43.4762 47.9973 42.7257 38.6214 44.7731 38.3885C46.8206 38.1556 48.1952 47.4605 49.5992 47.3008C51.0031 47.141 55.5255 29.4225 49.7434 27.0384Z" fill="white"/>
<path d="M58.0392 38.2972H52.5582C52.1717 38.2972 51.8555 37.981 51.8555 37.5946C51.8555 37.2082 52.1717 36.8921 52.5582 36.8921H58.0392C58.4257 36.8921 58.7419 37.2082 58.7419 37.5946C58.7419 37.981 58.4257 38.2972 58.0392 38.2972Z" fill="white"/>
<path d="M30.906 43.8124C27.4511 43.8124 23.5043 41.9858 22.2394 37.829C22.1223 37.4543 22.3331 37.0679 22.7079 36.9508C23.0826 36.8337 23.4691 37.0445 23.5862 37.4192C24.6754 40.9788 28.1538 42.4775 31.152 42.4073C33.7051 42.337 36.9961 40.9905 37.8393 37.466C37.933 37.0913 38.3078 36.8571 38.6826 36.9508C39.0573 37.0445 39.2916 37.4192 39.1979 37.7939C38.3429 41.33 35.2042 43.6953 31.1754 43.8124C31.1051 43.8124 30.9997 43.8124 30.906 43.8124Z" fill="white"/>
<path d="M8.71136 38.2972H3.65192C3.26543 38.2972 2.94922 37.981 2.94922 37.5946C2.94922 37.2082 3.26543 36.8921 3.65192 36.8921H8.71136C9.09784 36.8921 9.41405 37.2082 9.41405 37.5946C9.41405 37.981 9.09784 38.2972 8.71136 38.2972Z" fill="white"/>
</svg>
