<svg width="61" height="61" viewBox="0 0 61 61" fill="none" xmlns="http://www.w3.org/2000/svg">
<path d="M30.8457 60.3008C47.4142 60.3008 60.8457 46.8693 60.8457 30.3008C60.8457 13.7322 47.4142 0.300781 30.8457 0.300781C14.2772 0.300781 0.845703 13.7322 0.845703 30.3008C0.845703 46.8693 14.2772 60.3008 30.8457 60.3008Z" fill="#1B75BC"/>
<path d="M39.0837 21.3449C36.5066 19.9324 35.4162 23.5503 31.2284 23.5503C27.0405 23.5503 26.5945 19.8085 23.373 21.3449C16.2363 24.715 24.6616 46.7446 26.4458 46.7446C28.23 46.7446 28.6264 34.8749 31.2284 34.8749C33.8303 34.8749 34.2268 46.7446 36.011 46.7446C37.7952 46.7446 45.9974 25.161 39.0837 21.3449Z" fill="white"/>
<path d="M22.1227 17.9264H18.9754C18.7913 17.9264 18.6239 17.8091 18.5569 17.6417C18.49 17.4742 18.5234 17.2733 18.6574 17.1561L21.0513 14.7616H19.0591C18.808 14.7616 18.6071 14.5607 18.6071 14.3095C18.6071 14.0584 18.808 13.8574 19.0591 13.8574H22.1227C22.3068 13.8574 22.4742 13.9746 22.5412 14.1421C22.6081 14.3095 22.5746 14.5105 22.4407 14.6277L20.0468 17.0221H22.1227C22.3738 17.0221 22.5746 17.2231 22.5746 17.4743C22.5746 17.7254 22.3738 17.9264 22.1227 17.9264Z" fill="white"/>
<path d="M18.2173 26.3519H14.6241C14.3516 26.3519 14.1285 26.2033 14.0294 25.9554C13.9303 25.7076 13.9551 25.4351 14.1285 25.2368L16.7305 22.3127H14.6241C14.2524 22.3127 13.9551 22.0154 13.9551 21.6437C13.9551 21.272 14.2524 20.9746 14.6241 20.9746H18.2173C18.4899 20.9746 18.7129 21.1233 18.812 21.3711C18.9111 21.6189 18.8864 21.8915 18.7129 22.0897L16.111 25.0138H18.2173C18.589 25.0138 18.8864 25.3112 18.8864 25.6829C18.8864 26.0546 18.589 26.3519 18.2173 26.3519Z" fill="white"/>
</svg>
