<svg width="61" height="61" viewBox="0 0 61 61" fill="none" xmlns="http://www.w3.org/2000/svg">
<path d="M30.8457 60.6787C47.4142 60.6787 60.8457 47.2472 60.8457 30.6787C60.8457 14.1102 47.4142 0.678711 30.8457 0.678711C14.2772 0.678711 0.845703 14.1102 0.845703 30.6787C0.845703 47.2472 14.2772 60.6787 30.8457 60.6787Z" fill="#1B75BC"/>
<path d="M41.4643 16.2933C38.0019 14.3957 36.537 19.2564 30.9106 19.2564C25.2841 19.2564 24.6849 14.2292 20.3568 16.2933C10.7686 20.8211 22.0881 50.4182 24.4851 50.4182C26.8822 50.4182 27.4149 34.4711 30.9106 34.4711C34.4063 34.4711 34.939 50.4182 37.336 50.4182C39.7331 50.4182 50.7529 21.4204 41.4643 16.2933Z" fill="white"/>
<path d="M31.229 32.3306C27.2326 32.3306 23.6257 30.2574 21.9291 26.9152C21.8034 26.6639 21.904 26.3624 22.1553 26.2367C22.4067 26.1111 22.7083 26.2116 22.834 26.4629C24.6562 30.069 28.6653 31.5014 31.8448 31.3129C35.1878 31.1244 37.8018 29.3277 38.8449 26.5131C38.9454 26.2493 39.2345 26.1236 39.4858 26.2116C39.7497 26.3121 39.8754 26.6011 39.7874 26.8524C38.6061 30.0438 35.6653 32.0919 31.9076 32.3055C31.6814 32.3307 31.4552 32.3306 31.229 32.3306Z" fill="#006DB5"/>
<path d="M27.6978 24.4781C28.3572 24.4781 28.8917 23.9437 28.8917 23.2845C28.8917 22.6252 28.3572 22.0908 27.6978 22.0908C27.0384 22.0908 26.5039 22.6252 26.5039 23.2845C26.5039 23.9437 27.0384 24.4781 27.6978 24.4781Z" fill="#006DB5"/>
<path d="M34.3716 24.4781C35.031 24.4781 35.5655 23.9437 35.5655 23.2845C35.5655 22.6252 35.031 22.0908 34.3716 22.0908C33.7123 22.0908 33.1777 22.6252 33.1777 23.2845C33.1777 23.9437 33.7123 24.4781 34.3716 24.4781Z" fill="#006DB5"/>
</svg>
