<svg width="61" height="61" viewBox="0 0 61 61" fill="none" xmlns="http://www.w3.org/2000/svg">
<path d="M30.2666 60.5918C46.8351 60.5918 60.2666 47.1603 60.2666 30.5918C60.2666 14.0233 46.8351 0.591797 30.2666 0.591797C13.6981 0.591797 0.266602 14.0233 0.266602 30.5918C0.266602 47.1603 13.6981 60.5918 30.2666 60.5918Z" fill="#1B75BC"/>
<path d="M35.8309 29.8779C37.9336 29.8779 39.7018 28.3726 40.0841 26.2939C40.9203 21.4434 40.7531 16.7841 37.9097 15.2071C35.4248 13.8452 34.3734 17.3337 30.3353 17.3337C26.2973 17.3337 25.8672 13.7257 22.761 15.2071C19.7982 16.6168 19.6309 21.3717 20.515 26.3178C20.8973 28.3726 22.6654 29.8779 24.7442 29.8779H35.8309Z" fill="white"/>
<path d="M25.0312 32.457H35.4968L34.0153 47.5579H26.3693L25.0312 32.457Z" fill="white"/>
<path fill-rule="evenodd" clip-rule="evenodd" d="M37.2118 39.1904L22.4932 33.5275L23.3163 31.3892L38.0349 37.052L37.2118 39.1904Z" fill="#1B75BC"/>
<path fill-rule="evenodd" clip-rule="evenodd" d="M37.2118 44.2563L22.4932 38.5934L23.3163 36.4551L38.0349 42.1179L37.2118 44.2563Z" fill="#1B75BC"/>
<path fill-rule="evenodd" clip-rule="evenodd" d="M37.2118 49.5127L22.4932 43.8498L23.3163 41.7114L38.0349 47.3743L37.2118 49.5127Z" fill="#1B75BC"/>
</svg>
