<svg width="61" height="61" viewBox="0 0 61 61" fill="none" xmlns="http://www.w3.org/2000/svg">
<path d="M30.2842 60.0215C46.8527 60.0215 60.2842 46.59 60.2842 30.0215C60.2842 13.4529 46.8527 0.0214844 30.2842 0.0214844C13.7156 0.0214844 0.28418 13.4529 0.28418 30.0215C0.28418 46.59 13.7156 60.0215 30.2842 60.0215Z" fill="#1B75BC"/>
<path d="M37.9453 26.1919C37.9453 24.0892 43.7121 24.1101 43.7121 26.1711V28.253C43.7121 31.8963 37.9453 31.3758 37.9453 28.253V26.1919Z" fill="white"/>
<path d="M40.9848 31.3127C39.2569 31.3127 37.4248 30.2509 37.4248 28.2523V26.1913C37.4248 25.5042 37.8412 24.9213 38.6115 24.5466C39.1944 24.2551 39.9855 24.1094 40.8183 24.1094C42.463 24.1094 44.2118 24.7548 44.2118 26.1913V28.2732C44.2326 30.3759 42.6087 31.3127 40.9848 31.3127ZM40.8183 25.1503C40.1521 25.1503 39.5067 25.2752 39.0695 25.4834C38.6739 25.6708 38.4657 25.9206 38.4657 26.1913V28.2523C38.4657 29.5639 39.7773 30.2718 40.9848 30.2718C42.0466 30.2718 43.1708 29.7305 43.1708 28.2523V26.1704C43.1916 25.5251 41.9841 25.1503 40.8183 25.1503Z" fill="#1B75BC"/>
<path d="M35.2393 26.7741C35.2393 23.9011 41.0061 23.9219 41.0061 26.7532V29.6054C41.0894 31.8539 35.3434 31.7498 35.2393 29.6054V26.7741Z" fill="white"/>
<path d="M38.2373 31.5824C36.6342 31.5824 34.9895 30.937 34.9062 29.6462V26.794C34.9062 26.0237 35.2602 25.3575 35.9472 24.9203C36.5301 24.5456 37.2796 24.3374 38.1124 24.3374C39.6946 24.3374 41.2976 25.1702 41.2976 26.794V29.6462C41.3393 30.7496 40.2359 31.5199 38.4871 31.6032C38.4246 31.5824 38.3205 31.5824 38.2373 31.5824ZM38.1124 24.9411C37.4253 24.9411 36.7591 25.1077 36.3011 25.42C35.8015 25.7531 35.5308 26.2111 35.5308 26.7732V29.6046C35.5725 30.4998 37.1131 30.9994 38.4663 30.937C39.5905 30.8953 40.7147 30.4582 40.6731 29.6254V26.7524C40.6939 25.5033 39.3615 24.9411 38.1124 24.9411Z" fill="#1B75BC"/>
<path d="M23.8713 26.189C23.8713 24.0863 18.1045 24.1071 18.1045 26.1682V28.2501C18.1045 31.8934 23.8713 31.3729 23.8713 28.2501V26.189Z" fill="white"/>
<path d="M20.8314 31.3116C20.186 31.3116 19.5406 31.1658 19.0202 30.8535C18.1041 30.3122 17.6045 29.3962 17.6045 28.2512V26.1693C17.6045 24.7328 19.3741 24.0874 20.998 24.0874C21.8307 24.0874 22.6218 24.254 23.2048 24.5246C23.9751 24.8993 24.3914 25.4823 24.3914 26.1693V28.2304C24.3914 29.2713 23.8293 30.2082 22.8717 30.7494C22.2679 31.145 21.5393 31.3116 20.8314 31.3116ZM20.998 25.1492C19.8321 25.1492 18.6454 25.5447 18.6454 26.1901V28.272C18.6454 29.0423 18.9577 29.6252 19.5406 29.9791C20.3109 30.4372 21.4976 30.3955 22.3512 29.8959C22.8092 29.6252 23.3505 29.1256 23.3505 28.272V26.2109C23.3505 25.9403 23.1423 25.6905 22.7468 25.5031C22.3096 25.2741 21.6642 25.1492 20.998 25.1492Z" fill="#1B75BC"/>
<path d="M26.5774 26.7736C26.5774 23.9006 20.8105 23.9214 20.8105 26.7528V29.6049C20.8105 32.0616 26.5774 32.0407 26.5774 29.6049V26.7736Z" fill="white"/>
<path d="M23.6843 31.7705C22.8724 31.7705 22.1229 31.604 21.5608 31.2709C20.8738 30.8753 20.499 30.2924 20.499 29.6262V26.774C20.499 25.171 22.1021 24.3174 23.6843 24.3174C24.4962 24.3174 25.2665 24.5256 25.8495 24.9003C26.5365 25.3583 26.8904 26.0037 26.8904 26.774V29.6054C26.8904 31.0835 25.2457 31.7705 23.6843 31.7705ZM23.7051 24.9419C22.4768 24.9419 21.1444 25.5041 21.1444 26.774V29.6262C21.1444 31.6456 26.2867 31.6248 26.2867 29.6262V26.7948C26.2867 26.2327 26.0368 25.7747 25.5164 25.4416C25.0584 25.1085 24.3922 24.9419 23.7051 24.9419Z" fill="#1B75BC"/>
<path d="M30.7002 26.773C30.7002 23.5877 36.467 23.5253 36.467 26.7522V31.0825C36.467 32.6856 30.7002 32.6856 30.7002 31.0825V26.773Z" fill="white"/>
<path d="M33.573 32.6018C31.9907 32.6018 30.3877 32.123 30.3877 31.082V26.7725C30.3877 25.8148 30.8665 25.0237 31.7201 24.5241C32.8443 23.8787 34.3849 23.8787 35.4883 24.5241C36.3211 25.0029 36.7791 25.794 36.7791 26.7517V31.082C36.7791 32.123 35.176 32.6018 33.573 32.6018ZM31.0123 26.7725V31.082C31.0123 31.5817 32.1573 31.9772 33.573 31.9772C34.9887 31.9772 36.1337 31.5817 36.1337 31.082V26.7517C36.1337 25.8148 35.6132 25.3152 35.1552 25.0654C34.26 24.5449 32.9276 24.5449 32.0116 25.0654C31.5744 25.336 31.0123 25.8357 31.0123 26.7725Z" fill="#1B75BC"/>
<path d="M24.9346 26.7739C24.9138 23.6095 30.6806 23.5886 30.7015 26.7531V31.0834C30.7015 32.6865 24.9346 32.6865 24.9346 31.0834V26.7739Z" fill="white"/>
<path d="M27.8279 32.6026C26.2456 32.6026 24.6426 32.1238 24.6426 31.0829V26.7733C24.6426 25.0037 26.2456 24.0877 27.8279 24.0669C27.8279 24.0669 27.8279 24.0669 27.8487 24.0669C29.4309 24.0669 31.034 24.9829 31.034 26.7317V31.062C31.0132 32.1238 29.4101 32.6026 27.8279 32.6026ZM27.8279 24.7123C27.8279 24.7123 27.807 24.7123 27.8279 24.7123C26.5787 24.7123 25.2463 25.3577 25.2463 26.7733V31.0829C25.2463 31.5825 26.3914 31.9781 27.807 31.9781C29.2227 31.9781 30.3678 31.5825 30.3678 31.0829V26.7525C30.3886 25.3368 29.0562 24.7123 27.8279 24.7123Z" fill="#1B75BC"/>
<path d="M23.8723 38.5989C23.8723 41.0139 18.1055 40.9931 18.1055 38.6197V36.7668C18.1055 33.5399 23.8723 33.9979 23.8723 36.7668V38.5989Z" fill="white"/>
<path d="M20.9988 40.702C19.479 40.702 17.8135 40.0566 17.8135 38.6201V36.7672C17.8135 35.872 18.2299 35.1226 19.0002 34.6854C20.0827 34.0608 21.7274 34.0816 22.8933 34.7686C23.7052 35.2475 24.1632 35.9553 24.1632 36.7881V38.6201C24.1632 39.2863 23.7885 39.8484 23.1015 40.2232C22.5602 40.5355 21.7899 40.702 20.9988 40.702ZM20.8322 34.8311C20.2701 34.8311 19.7288 34.956 19.3124 35.2058C18.8961 35.4348 18.4172 35.9137 18.4172 36.7881V38.6409C18.4172 40.1607 21.4984 40.473 22.8516 39.7235C23.3513 39.4529 23.6011 39.0781 23.6011 38.6201V36.7881C23.6011 36.0178 23.0598 35.5389 22.6226 35.2891C22.0813 34.9768 21.4568 34.8311 20.8322 34.8311Z" fill="#1B75BC"/>
<path d="M26.5793 38.5577C26.5793 41.4307 20.8125 41.4099 20.8125 38.5785V35.7263C20.8125 33.4363 26.5793 33.4363 26.5793 35.7263V38.5577Z" fill="white"/>
<path d="M23.7058 41.0149C22.1236 41.0149 20.5205 40.1821 20.5205 38.5583V35.6853C20.5205 34.2904 22.186 33.645 23.7058 33.645C25.2464 33.645 26.8911 34.2904 26.8911 35.6853V38.5166C26.8911 39.2869 26.5372 39.9531 25.8501 40.3903C25.288 40.8067 24.5177 41.0149 23.7058 41.0149ZM23.7058 34.3112C22.4358 34.3112 21.1451 34.7901 21.1451 35.7269V38.5999C21.1451 39.849 22.4775 40.432 23.7058 40.432C24.3928 40.432 25.059 40.2654 25.517 39.9531C26.0167 39.62 26.2873 39.162 26.2873 38.5999V35.7685C26.2873 35.3522 26.0375 35.0191 25.5587 34.7484C25.059 34.4361 24.3928 34.3112 23.7058 34.3112Z" fill="#1B75BC"/>
<path d="M37.9453 38.5759C37.9453 40.8452 43.733 41.095 43.7121 38.5967V36.7647C43.7121 33.5794 37.9453 34.0166 37.9453 36.7647V38.5759Z" fill="white"/>
<path d="M40.943 40.6591C40.1311 40.6591 39.2983 40.4717 38.6738 40.1178C38.0076 39.7431 37.6328 39.181 37.6328 38.5564V36.7452C37.6328 35.1005 39.3608 34.2261 40.9638 34.2261C42.4628 34.2261 43.9617 35.0172 43.9617 36.7452V38.5772C43.9617 39.2434 43.6286 39.7847 42.9833 40.1595C42.4628 40.4926 41.7133 40.6591 40.943 40.6591ZM38.2366 38.5772C38.2366 39.0977 38.6321 39.4308 38.9652 39.6182C40.0062 40.2011 41.7549 40.2427 42.7334 39.6806C43.1915 39.41 43.4205 39.0561 43.4205 38.598V36.766C43.4205 35.3295 42.1089 34.8298 41.0055 34.8298C39.6522 34.8298 38.2574 35.5585 38.2574 36.766V38.5772H38.2366Z" fill="#1B75BC"/>
<path d="M35.2393 38.5573C35.2393 41.4303 41.0061 41.4095 41.0061 38.5781V35.7259C41.0061 33.4567 35.2393 33.3942 35.2393 35.7259V38.5573Z" fill="white"/>
<path d="M38.1124 41.0138C37.3004 41.0138 36.5301 40.8056 35.9472 40.4309C35.2602 39.9728 34.9062 39.3275 34.9062 38.5572V35.7258C34.9062 34.3309 36.5509 33.6855 38.0707 33.6855C39.6321 33.6855 41.2976 34.3309 41.2976 35.7258V38.5988C41.3185 40.181 39.6946 41.0138 38.1124 41.0138ZM38.0915 34.2893C36.8216 34.2893 35.5516 34.7681 35.5516 35.705V38.5363C35.5516 39.0985 35.8015 39.5565 36.3219 39.8896C36.7799 40.2019 37.4462 40.3684 38.1332 40.3684C39.3615 40.3684 40.6939 39.8063 40.6939 38.5363V35.6633C40.6939 34.7889 39.3823 34.2893 38.0915 34.2893Z" fill="#1B75BC"/>
<path d="M31.1174 38.829C31.1174 41.6395 25.3506 41.6187 25.3506 38.8498V35.1024C25.3506 32.9372 31.1174 32.9372 31.1174 35.1024V38.829Z" fill="white"/>
<path d="M28.2442 41.2644C27.4323 41.2644 26.662 41.0562 26.079 40.6815C25.392 40.2443 25.0381 39.5989 25.0381 38.8494V35.102C25.0381 33.7696 26.7036 33.145 28.2442 33.145C29.7848 33.145 31.4503 33.7488 31.4503 35.102V38.8286C31.4503 40.5149 29.7848 41.2644 28.2442 41.2644ZM28.2442 33.8112C26.9742 33.8112 25.6835 34.2484 25.6835 35.102V38.8494C25.6835 40.0569 27.0159 40.5982 28.2442 40.5982C29.4725 40.5982 30.8049 40.0361 30.8049 38.8286V35.102C30.8049 34.7273 30.5551 34.415 30.0763 34.1651C29.5974 33.9361 28.9312 33.8112 28.2442 33.8112Z" fill="#1B75BC"/>
<path d="M36.884 38.828C36.884 41.6594 31.1172 41.6177 31.1172 38.8488V35.1014C31.1172 32.9362 36.884 32.9362 36.884 35.1014V38.828Z" fill="white"/>
<path d="M34.0108 41.2844C33.2821 41.2844 32.5535 41.1178 31.9705 40.7847C31.2211 40.3476 30.8047 39.6605 30.8047 38.8694V35.122C30.8047 33.7896 32.4702 33.165 34.0108 33.165C35.5514 33.165 37.2169 33.7688 37.2169 35.122V38.8486C37.2169 39.6605 36.8005 40.3476 36.0302 40.7847C35.4473 41.1178 34.7395 41.2844 34.0108 41.2844ZM33.99 33.8104C32.72 33.8104 31.4293 34.2476 31.4293 35.1012V38.8486C31.4293 39.5564 31.8873 39.9728 32.2828 40.2018C33.2405 40.7639 34.7395 40.7639 35.6971 40.2226C36.0927 39.9936 36.5507 39.5773 36.5507 38.8486V35.122C36.5507 34.7473 36.3009 34.435 35.822 34.1852C35.364 33.9353 34.6978 33.8104 33.99 33.8104Z" fill="#1B75BC"/>
<path d="M42.9001 24.5244C42.7544 24.5244 42.6295 24.5036 42.4837 24.4411C38.1951 22.609 21.4983 22.5674 18.667 24.3578C18.1881 24.6701 17.5427 24.5244 17.2305 24.0455C16.9182 23.5667 17.0639 22.9213 17.5427 22.609C21.2277 20.2565 38.7155 20.5688 43.2957 22.5258C43.8162 22.7548 44.066 23.3585 43.837 23.8998C43.6912 24.2954 43.3165 24.5244 42.9001 24.5244Z" fill="white"/>
<path d="M30.201 43.9079C26.8283 43.9079 23.6638 43.8454 21.3113 43.7622C17.4182 43.5956 16.2939 43.4915 16.2939 42.2632C16.2939 41.4721 17.3349 40.9933 17.9386 41.4096C20.3744 41.9717 40.0066 41.9717 42.4425 41.4096C43.0462 40.9724 44.0871 41.4513 44.0871 42.2632C44.0871 43.4291 44.0871 43.9079 30.201 43.9079Z" fill="white"/>
<path d="M13.0263 17.1145C13.6093 16.5316 14.6086 14.2207 14.6086 14.2207C14.6086 14.2207 15.6079 16.5316 16.1908 17.0937C16.7737 17.6766 19.0638 18.6759 19.0638 18.6759C19.0638 18.6759 16.7737 19.6752 16.1908 20.2582C15.6079 20.8411 14.6086 23.152 14.6086 23.152C14.6086 23.152 13.6093 20.8411 13.0263 20.2582C12.4642 19.6752 10.1533 18.6968 10.1533 18.6968C10.1533 18.6968 12.4642 17.6975 13.0263 17.1145Z" fill="white"/>
</svg>
