<svg width="61" height="61" viewBox="0 0 61 61" fill="none" xmlns="http://www.w3.org/2000/svg">
<path d="M30.4502 60.833C47.0187 60.833 60.4502 47.4015 60.4502 30.833C60.4502 14.2645 47.0187 0.833008 30.4502 0.833008C13.8817 0.833008 0.450195 14.2645 0.450195 30.833C0.450195 47.4015 13.8817 60.833 30.4502 60.833Z" fill="#1B75BC"/>
<path d="M39.3673 20.706C36.6183 19.1993 35.4553 23.0584 30.9882 23.0584C26.5212 23.0584 26.0454 19.0672 22.6092 20.706C14.9967 24.3008 23.9836 47.7991 25.8868 47.7991C27.7899 47.7991 28.2128 35.138 30.9882 35.138C33.7636 35.138 34.1865 47.7991 36.0897 47.7991C37.9928 47.7991 46.7419 24.7501 39.3673 20.706Z" fill="white"/>
<path d="M34.1613 32.4152H27.7911C26.6546 32.4152 25.7559 31.49 25.7559 30.3799V28.8468C25.7559 27.7102 26.681 26.8115 27.7911 26.8115H34.1613C35.2979 26.8115 36.1966 27.7367 36.1966 28.8468V30.3799C36.1966 31.49 35.2979 32.4152 34.1613 32.4152Z" fill="#1B75BC"/>
<path d="M45.3679 28.5044H17.7197V31.1476H45.3679V28.5044Z" fill="#1B75BC"/>
<path d="M14.6796 16.6362C15.2347 16.0811 16.1863 13.8872 16.1863 13.8872C16.1863 13.8872 17.1378 16.0811 17.6929 16.6362C18.248 17.1912 20.4419 18.1428 20.4419 18.1428C20.4419 18.1428 18.248 19.0944 17.6929 19.6495C17.1378 20.2045 16.1863 22.3984 16.1863 22.3984C16.1863 22.3984 15.2347 20.2045 14.6796 19.6495C14.1246 19.0944 11.9307 18.1428 11.9307 18.1428C11.9307 18.1428 14.1246 17.1912 14.6796 16.6362Z" fill="white"/>
</svg>
