<svg width="61" height="61" viewBox="0 0 61 61" fill="none" xmlns="http://www.w3.org/2000/svg">
<path d="M30.5445 60.3955C47.109 60.3955 60.5372 46.964 60.5372 30.3955C60.5372 13.827 47.109 0.395508 30.5445 0.395508C13.98 0.395508 0.551758 13.827 0.551758 30.3955C0.551758 46.964 13.98 60.3955 30.5445 60.3955Z" fill="#1B75BC"/>
<path d="M47.4666 28.6395C46.4715 25.2312 42.4006 27.3727 38.8122 23.7834C35.1936 20.164 38.0281 16.5747 33.9572 15.1269C24.9108 11.8995 13.2107 38.0803 14.7486 39.6185C16.2865 41.1568 26.8407 31.2636 29.0722 33.5258C31.3036 35.7578 21.443 46.3145 22.9809 47.8528C24.5188 49.3911 50.1504 37.8691 47.4666 28.6395Z" fill="white"/>
<path d="M30.3527 22.0217C30.2699 22.0217 30.187 21.9996 30.0986 21.9499C29.4358 21.5577 29.4523 21.1435 29.4744 20.5636C29.4799 20.4477 29.4855 20.3151 29.4855 20.1715C29.4799 20.1053 29.3584 19.8899 29.2811 19.7628C29.0988 19.4536 28.9386 19.1885 29.0215 18.962C29.1761 18.5313 29.5794 18.592 29.8445 18.6307C30.0268 18.6583 30.1981 18.6859 30.3141 18.6086C30.408 18.5478 30.5129 18.3104 30.6013 18.1171C30.767 17.747 30.9548 17.3218 31.3581 17.3218C31.811 17.3218 32.0707 17.7249 32.2972 18.0839C32.4076 18.2606 32.5236 18.4429 32.6396 18.5313C32.7722 18.6362 32.9269 18.7301 33.076 18.8184C33.4958 19.067 33.9709 19.3542 33.9709 19.9948C33.9709 20.4863 33.5179 20.6465 33.1534 20.7735C32.9435 20.8453 32.728 20.9226 32.6231 21.0441C32.5236 21.1546 32.485 21.265 32.4518 21.37C32.2861 21.8394 32.0265 21.9002 31.2366 21.6682C31.1426 21.6406 31.0322 21.7069 30.8665 21.8118C30.7173 21.9112 30.5461 22.0217 30.3527 22.0217Z" fill="#006DB5"/>
</svg>
