<svg width="61" height="61" viewBox="0 0 61 61" fill="none" xmlns="http://www.w3.org/2000/svg">
<path d="M30.2783 60.6533C46.8469 60.6533 60.2783 47.2219 60.2783 30.6533C60.2783 14.0848 46.8469 0.65332 30.2783 0.65332C13.7098 0.65332 0.27832 14.0848 0.27832 30.6533C0.27832 47.2219 13.7098 60.6533 30.2783 60.6533Z" fill="#1B75BC"/>
<path d="M35.4147 12.5354C33.3736 11.4168 32.5101 14.2821 29.1934 14.2821C25.8767 14.2821 25.5234 11.3186 22.9721 12.5354C17.3199 15.2045 23.9926 32.6516 25.4056 32.6516C26.8187 32.6516 27.1327 23.251 29.1934 23.251C31.2541 23.251 31.5681 32.6516 32.9811 32.6516C34.3942 32.6516 40.8902 15.5578 35.4147 12.5354Z" fill="white"/>
<path d="M23.1457 18.4059C23.0628 18.4059 22.98 18.3838 22.8916 18.3341C22.2287 17.942 22.2453 17.5278 22.2674 16.9479C22.2729 16.8319 22.2784 16.6994 22.2784 16.5558C22.2729 16.4895 22.1514 16.2741 22.074 16.1471C21.8918 15.8378 21.7316 15.5728 21.8144 15.3463C21.9691 14.9155 22.3723 14.9763 22.6375 15.0149C22.8198 15.0426 22.991 15.0702 23.107 14.9929C23.2009 14.9321 23.3059 14.6946 23.3943 14.5013C23.56 14.1313 23.7478 13.7061 24.1511 13.7061C24.604 13.7061 24.8636 14.1092 25.0901 14.4682C25.2006 14.6449 25.3166 14.8272 25.4326 14.9155C25.5652 15.0205 25.7199 15.1144 25.869 15.2027C26.2888 15.4512 26.7639 15.7384 26.7639 16.3791C26.7639 16.8706 26.3109 17.0308 25.9463 17.1578C25.7364 17.2296 25.521 17.3069 25.416 17.4284C25.3166 17.5389 25.2779 17.6493 25.2448 17.7542C25.0791 18.2237 24.8194 18.2844 24.0295 18.0525C23.9356 18.0249 23.8251 18.0911 23.6594 18.1961C23.5103 18.2955 23.339 18.4059 23.1457 18.4059Z" fill="#006DB5"/>
<path d="M27.0184 16.5785C27.0334 16.5636 27.0523 16.5526 27.0773 16.5456C27.2677 16.4967 27.3395 16.5745 27.4402 16.6832C27.4602 16.7051 27.4831 16.73 27.509 16.756C27.522 16.7669 27.5828 16.7839 27.6197 16.7928C27.7085 16.8158 27.7852 16.8347 27.8112 16.8905C27.861 16.9962 27.7772 17.0581 27.7224 17.099C27.6845 17.1269 27.6486 17.1528 27.6416 17.1877C27.6356 17.2156 27.6595 17.2775 27.6785 17.3283C27.7154 17.425 27.7582 17.5357 27.6854 17.6085C27.6037 17.6903 27.484 17.6644 27.3783 17.6405C27.3265 17.6285 27.2726 17.6165 27.2357 17.6215C27.1928 17.6265 27.148 17.6375 27.1051 17.6485C26.9844 17.6794 26.8468 17.7133 26.7312 17.5976C26.6424 17.5089 26.6953 17.3982 26.7382 17.3095C26.7631 17.2586 26.788 17.2058 26.785 17.1649C26.7831 17.127 26.7701 17.1001 26.7571 17.0751C26.7023 16.9605 26.7382 16.9026 26.9227 16.8019C26.9446 16.7899 26.9526 16.758 26.9636 16.7091C26.9726 16.6643 26.9835 16.6134 27.0184 16.5785Z" fill="#006DB5"/>
<path d="M33.903 14.3504C33.8976 14.3299 33.8975 14.308 33.904 14.283C33.9569 14.0936 34.0601 14.0703 34.2046 14.0374C34.2335 14.0311 34.2666 14.0237 34.302 14.0142C34.318 14.0085 34.3631 13.9643 34.3893 13.9368C34.4535 13.8714 34.5083 13.8144 34.5696 13.8199C34.6861 13.8296 34.6977 13.933 34.7057 14.001C34.711 14.0477 34.7155 14.0918 34.7422 14.1153C34.7634 14.1344 34.8289 14.1446 34.8824 14.1537C34.9846 14.1701 35.1019 14.1883 35.1285 14.2877C35.1585 14.3994 35.0762 14.4901 35.0026 14.5697C34.9664 14.6086 34.9291 14.6493 34.915 14.6837C34.8978 14.7233 34.8849 14.7677 34.873 14.8103C34.8394 14.9303 34.8 15.0664 34.642 15.1087C34.5208 15.1412 34.4513 15.0401 34.3959 14.9586C34.3643 14.9116 34.331 14.8635 34.2941 14.8457C34.2603 14.8285 34.2305 14.8262 34.2025 14.825C34.0757 14.8151 34.0436 14.7551 34.0486 14.545C34.0492 14.52 34.0256 14.4971 33.9887 14.4632C33.9544 14.433 33.9158 14.398 33.903 14.3504Z" fill="#006DB5"/>
<path d="M21.7604 28.3089C19.7193 27.1902 18.8558 30.0555 15.5391 30.0555C12.2224 30.0555 11.8691 27.0921 9.31778 28.3089C3.66561 30.9779 10.3383 48.4251 11.7513 48.4251C13.1644 48.4251 13.4784 39.0244 15.5391 39.0244C17.5998 39.0244 17.9138 48.4251 19.3268 48.4251C20.7399 48.4251 27.2359 31.3312 21.7604 28.3089Z" fill="white"/>
<path d="M49.177 26.9622C47.0226 26.0814 46.4885 29.026 43.193 29.4009C39.8975 29.7758 39.2116 26.8713 36.8141 28.3686C31.4999 31.6594 40.1018 48.2406 41.5058 48.0808C42.9098 47.9211 42.1593 38.5452 44.2067 38.3123C46.2542 38.0794 47.6288 47.3843 49.0328 47.2246C50.4367 47.0649 54.9591 29.3463 49.177 26.9622Z" fill="white"/>
<path d="M57.4728 38.221H51.9918C51.6053 38.221 51.2891 37.9049 51.2891 37.5185C51.2891 37.1321 51.6053 36.8159 51.9918 36.8159H57.4728C57.8593 36.8159 58.1755 37.1321 58.1755 37.5185C58.1755 37.9049 57.8593 38.221 57.4728 38.221Z" fill="white"/>
<path d="M30.3386 43.7362C26.8837 43.7362 22.9369 41.9096 21.672 37.7528C21.5549 37.3781 21.7657 36.9917 22.1405 36.8747C22.5153 36.7576 22.9017 36.9683 23.0189 37.343C24.108 40.9026 27.5864 42.4014 30.5846 42.3311C33.1377 42.2609 36.4287 40.9143 37.2719 37.3899C37.3656 37.0152 37.7404 36.781 38.1152 36.8747C38.4899 36.9683 38.7242 37.343 38.6305 37.7177C37.7755 41.2539 34.6368 43.6191 30.608 43.7362C30.5377 43.7362 30.4323 43.7362 30.3386 43.7362Z" fill="white"/>
<path d="M8.143 38.221H3.08356C2.69707 38.221 2.38086 37.9049 2.38086 37.5185C2.38086 37.1321 2.69707 36.8159 3.08356 36.8159H8.143C8.52948 36.8159 8.84569 37.1321 8.84569 37.5185C8.84569 37.9049 8.52948 38.221 8.143 38.221Z" fill="white"/>
</svg>
