<svg width="61" height="61" viewBox="0 0 61 61" fill="none" xmlns="http://www.w3.org/2000/svg">
<path d="M30.2783 60.6533C46.8469 60.6533 60.2783 47.2219 60.2783 30.6533C60.2783 14.0848 46.8469 0.65332 30.2783 0.65332C13.7098 0.65332 0.27832 14.0848 0.27832 30.6533C0.27832 47.2219 13.7098 60.6533 30.2783 60.6533Z" fill="#1B75BC"/>
<path d="M38.5173 21.6974C35.9402 20.2849 34.8498 23.9028 30.662 23.9028C26.4741 23.9028 26.0281 20.161 22.8066 21.6974C15.6699 25.0675 24.0952 47.0972 25.8794 47.0972C27.6636 47.0972 28.06 35.2274 30.662 35.2274C33.2639 35.2274 33.6604 47.0972 35.4446 47.0972C37.2287 47.0972 45.431 25.5136 38.5173 21.6974Z" fill="white"/>
<path d="M21.5553 18.2789H18.408C18.2239 18.2789 18.0565 18.1617 17.9895 17.9942C17.9226 17.8268 17.9561 17.6259 18.09 17.5086L20.4839 15.1142H18.4918C18.2406 15.1142 18.0398 14.9132 18.0398 14.6621C18.0398 14.4109 18.2406 14.21 18.4918 14.21H21.5553C21.7394 14.21 21.9068 14.3272 21.9738 14.4946C22.0407 14.6621 22.0073 14.863 21.8733 14.9802L19.4794 17.3747H21.5553C21.8064 17.3747 22.0073 17.5756 22.0073 17.8268C22.0073 18.078 21.8064 18.2789 21.5553 18.2789Z" fill="white"/>
<path d="M17.6499 26.7045H14.0568C13.7842 26.7045 13.5612 26.5558 13.462 26.308C13.3629 26.0602 13.3877 25.7876 13.5612 25.5894L16.1631 22.6653H14.0568C13.6851 22.6653 13.3877 22.3679 13.3877 21.9962C13.3877 21.6245 13.6851 21.3271 14.0568 21.3271H17.6499C17.9225 21.3271 18.1455 21.4758 18.2446 21.7236C18.3438 21.9714 18.319 22.244 18.1455 22.4423L15.5436 25.3663H17.6499C18.0216 25.3663 18.319 25.6637 18.319 26.0354C18.319 26.4071 18.0216 26.7045 17.6499 26.7045Z" fill="white"/>
</svg>
