<svg width="61" height="61" viewBox="0 0 61 61" fill="none" xmlns="http://www.w3.org/2000/svg">
<path d="M30.2783 60.6533C46.8469 60.6533 60.2783 47.2219 60.2783 30.6533C60.2783 14.0848 46.8469 0.65332 30.2783 0.65332C13.7098 0.65332 0.27832 14.0848 0.27832 30.6533C0.27832 47.2219 13.7098 60.6533 30.2783 60.6533Z" fill="#1B75BC"/>
<path d="M40.8979 16.2679C37.4355 14.3703 35.9706 19.231 30.3442 19.231C24.7177 19.231 24.1185 14.2038 19.7904 16.2679C10.2022 20.7957 21.5217 50.3928 23.9187 50.3928C26.3158 50.3928 26.8485 34.4457 30.3442 34.4457C33.8399 34.4457 34.3726 50.3928 36.7696 50.3928C39.1667 50.3928 50.1865 21.395 40.8979 16.2679Z" fill="white"/>
<path d="M30.6616 32.3052C26.6652 32.3052 23.0583 30.2321 21.3617 26.8898C21.236 26.6385 21.3366 26.337 21.5879 26.2113C21.8393 26.0857 22.1409 26.1862 22.2666 26.4375C24.0889 30.0436 28.0979 31.476 31.2774 31.2875C34.6204 31.099 37.2344 29.3023 38.2775 26.4877C38.378 26.2239 38.6671 26.0982 38.9184 26.1862C39.1823 26.2867 39.308 26.5757 39.2201 26.827C38.0387 30.0184 35.0979 32.0665 31.3403 32.2801C31.1141 32.3053 30.8878 32.3052 30.6616 32.3052Z" fill="#006DB5"/>
<path d="M27.1304 24.4527C27.7898 24.4527 28.3243 23.9183 28.3243 23.2591C28.3243 22.5998 27.7898 22.0654 27.1304 22.0654C26.4711 22.0654 25.9365 22.5998 25.9365 23.2591C25.9365 23.9183 26.4711 24.4527 27.1304 24.4527Z" fill="#006DB5"/>
<path d="M33.8052 24.4527C34.4646 24.4527 34.9991 23.9183 34.9991 23.2591C34.9991 22.5998 34.4646 22.0654 33.8052 22.0654C33.1458 22.0654 32.6113 22.5998 32.6113 23.2591C32.6113 23.9183 33.1458 24.4527 33.8052 24.4527Z" fill="#006DB5"/>
</svg>
