<svg width="61" height="61" viewBox="0 0 61 61" fill="none" xmlns="http://www.w3.org/2000/svg">
<path d="M30.3643 60.4219C46.9328 60.4219 60.3643 46.9904 60.3643 30.4219C60.3643 13.8533 46.9328 0.421875 30.3643 0.421875C13.7957 0.421875 0.364258 13.8533 0.364258 30.4219C0.364258 46.9904 13.7957 60.4219 30.3643 60.4219Z" fill="#1B75BC"/>
<path d="M37.0778 44.3542H21.2947C20.0825 44.3542 19.1025 43.3742 19.1025 42.1621V19.0031C19.1025 17.791 20.0825 16.811 21.2947 16.811H40.3789C41.591 16.811 42.571 17.791 42.571 19.0031V38.7837C42.571 39.351 42.3389 39.9184 41.952 40.3052L38.651 43.6837C38.2383 44.0963 37.671 44.3542 37.0778 44.3542Z" fill="white"/>
<path d="M37.2561 45.1283C36.8177 45.1283 36.4824 44.7931 36.4824 44.3546V38.8357C36.4824 38.3973 36.8177 38.062 37.2561 38.062H42.8782C43.3166 38.062 43.6519 38.3973 43.6519 38.8357C43.6519 39.2741 43.3166 39.6094 42.8782 39.6094H38.0298V44.3546C38.0298 44.7673 37.6945 45.1283 37.2561 45.1283Z" fill="#1B75BC"/>
<path d="M28.0494 22.7178H23.9231C23.4847 22.7178 23.1494 22.3825 23.1494 21.9441C23.1494 21.5057 23.4847 21.1704 23.9231 21.1704H28.0494C28.4878 21.1704 28.8231 21.5057 28.8231 21.9441C28.8231 22.3825 28.4878 22.7178 28.0494 22.7178Z" fill="#1B75BC"/>
<path d="M34.5251 28.6235H23.9514C23.513 28.6235 23.1777 28.2883 23.1777 27.8499C23.1777 27.4114 23.513 27.0762 23.9514 27.0762H34.5251C34.9635 27.0762 35.2988 27.4114 35.2988 27.8499C35.2988 28.2883 34.9377 28.6235 34.5251 28.6235Z" fill="#1B75BC"/>
<path d="M34.5251 32.0288H23.9514C23.513 32.0288 23.1777 31.6936 23.1777 31.2551C23.1777 30.8167 23.513 30.4814 23.9514 30.4814H34.5251C34.9635 30.4814 35.2988 30.8167 35.2988 31.2551C35.2988 31.6936 34.9377 32.0288 34.5251 32.0288Z" fill="#1B75BC"/>
<path d="M26.0639 41.6991C24.336 41.6991 22.9434 40.3064 22.9434 38.5785C22.9434 36.8506 24.336 35.458 26.0639 35.458C27.7918 35.458 29.1844 36.8506 29.1844 38.5785C29.1844 40.3064 27.7918 41.6991 26.0639 41.6991ZM26.0639 37.0054C25.187 37.0054 24.4649 37.7275 24.4649 38.6043C24.4649 39.4812 25.187 40.1775 26.0639 40.1775C26.9407 40.1775 27.637 39.4554 27.637 38.6043C27.637 37.7533 26.9407 37.0054 26.0639 37.0054Z" fill="#1B75BC"/>
</svg>
