<svg width="61" height="61" viewBox="0 0 61 61" fill="none" xmlns="http://www.w3.org/2000/svg">
<path d="M30.8257 60.0381C47.3903 60.0381 60.8185 46.6066 60.8185 30.0381C60.8185 13.4695 47.3903 0.0380859 30.8257 0.0380859C14.2612 0.0380859 0.833008 13.4695 0.833008 30.0381C0.833008 46.6066 14.2612 60.0381 30.8257 60.0381Z" fill="#1B75BC"/>
<path d="M17.8766 18.1343H43.7743C45.7447 18.1343 47.3086 19.7298 47.3086 21.6695V38.407C47.3086 40.3779 45.7135 41.9422 43.7743 41.9422H17.8766C15.9061 41.9422 14.3422 40.3466 14.3422 38.407V21.6695C14.311 19.6985 15.9061 18.1343 17.8766 18.1343Z" fill="white"/>
<path d="M23.0385 32.556C22.1627 32.556 21.4746 31.8677 21.4746 30.9917V22.4822C21.4746 21.6062 22.1627 20.918 23.0385 20.918C23.9143 20.918 24.6024 21.6062 24.6024 22.4822V30.9917C24.6024 31.8677 23.9143 32.556 23.0385 32.556Z" fill="#1B75BC"/>
<path d="M26.9476 28.3326H19.1908C18.3151 28.3326 17.627 27.6443 17.627 26.7684C17.627 25.8924 18.3151 25.2041 19.1908 25.2041H26.9476C27.8234 25.2041 28.5115 25.8924 28.5115 26.7684C28.5115 27.6443 27.8234 28.3326 26.9476 28.3326Z" fill="#1B75BC"/>
</svg>
