<svg width="61" height="61" viewBox="0 0 61 61" fill="none" xmlns="http://www.w3.org/2000/svg">
<path d="M30.9859 60.4697C47.5504 60.4697 60.9786 47.0383 60.9786 30.4697C60.9786 13.9012 47.5504 0.469727 30.9859 0.469727C14.4214 0.469727 0.993164 13.9012 0.993164 30.4697C0.993164 47.0383 14.4214 60.4697 30.9859 60.4697Z" fill="#1B75BC"/>
<path d="M18.3657 15.3896H43.6066C45.7334 15.3896 47.485 17.1103 47.485 19.269V41.669C47.485 43.7964 45.7647 45.5484 43.6066 45.5484H18.3657C16.2388 45.5484 14.4873 43.8277 14.4873 41.669V19.269C14.4873 17.1416 16.2388 15.3896 18.3657 15.3896Z" fill="white"/>
<path d="M53.7714 21.1152H11.5469V24.2437H53.7714V21.1152Z" fill="#1B75BC"/>
<path d="M22.9005 27.4663H19.4912V30.5948H22.9005V27.4663Z" fill="#1B75BC"/>
<path d="M29.3749 27.4663H26.1221V30.5948H29.3749V27.4663Z" fill="#1B75BC"/>
<path d="M35.8799 27.4663H32.4707V30.5948H35.8799V27.4663Z" fill="#1B75BC"/>
<path d="M42.3857 27.4663H39.1328V30.5948H42.3857V27.4663Z" fill="#1B75BC"/>
<path d="M22.9005 33.0356H19.4912V36.1641H22.9005V33.0356Z" fill="#1B75BC"/>
<path d="M29.3749 33.0356H26.1221V36.1641H29.3749V33.0356Z" fill="#1B75BC"/>
<path d="M35.8799 33.0356H32.4707V36.1641H35.8799V33.0356Z" fill="#1B75BC"/>
<path d="M42.3857 33.0356H39.1328V36.1641H42.3857V33.0356Z" fill="#1B75BC"/>
<path d="M22.9005 38.5415H19.4912V41.67H22.9005V38.5415Z" fill="#1B75BC"/>
<path d="M29.3749 38.5415H26.1221V41.67H29.3749V38.5415Z" fill="#1B75BC"/>
<path d="M35.8799 38.5415H32.4707V41.67H35.8799V38.5415Z" fill="#1B75BC"/>
<path d="M42.3857 38.5415H39.1328V41.67H42.3857V38.5415Z" fill="#1B75BC"/>
</svg>
