<svg width="50" height="50" viewBox="0 0 50 50" fill="none" xmlns="http://www.w3.org/2000/svg">
<g clip-path="url(#clip0)">
<path d="M24.9999 16.7207C20.6492 16.7207 17.1143 20.2557 17.1143 24.6064C17.1143 28.9571 20.6492 32.4921 24.9999 32.4921C29.3507 32.4921 32.8856 28.9571 32.8856 24.6064C32.8856 20.2557 29.3507 16.7207 24.9999 16.7207ZM24.4017 22.2679C23.4228 22.2679 22.607 23.0836 22.607 24.0626H19.9966C20.051 21.6153 22.0088 19.6574 24.4017 19.6574V22.2679Z" fill="white"/>
<path d="M48.929 22.9753C46.2642 19.6579 36.7469 8.83545 25 8.83545C13.2531 8.83545 3.73585 19.6579 1.07103 22.9753C0.309656 23.8998 0.309656 25.2594 1.07103 26.2383C3.73585 29.5558 13.2531 40.3782 25 40.3782C36.7469 40.3782 46.2642 29.5558 48.929 26.2383C49.6903 25.3138 49.6903 23.9542 48.929 22.9753ZM25 36.0275C18.6915 36.0275 13.5794 30.9154 13.5794 24.6068C13.5794 18.2983 18.6915 13.1862 25 13.1862C31.3085 13.1862 36.4206 18.2983 36.4206 24.6068C36.4206 30.9154 31.3085 36.0275 25 36.0275Z" fill="white"/>
</g>
<defs>
<clipPath id="clip0">
<rect width="49" height="49" fill="white" transform="translate(0.5 0.106445)"/>
</clipPath>
</defs>
</svg>
