<svg width="26" height="26" viewBox="0 0 26 26" fill="none" xmlns="http://www.w3.org/2000/svg">
<rect width="26" height="26" rx="10" fill="white"/>
<path d="M18.962 0H7.03795C3.15716 0 0 3.15716 0 7.03795V18.9622C0 22.8428 3.15716 26 7.03795 26H18.9622C22.8428 26 26 22.8428 26 18.9622V7.03795C26 3.15716 22.8428 0 18.962 0V0ZM24.4757 18.9622C24.4757 22.0023 22.0023 24.4757 18.962 24.4757H7.03795C3.99763 24.4757 1.52423 22.0023 1.52423 18.9622V7.03795C1.52423 3.99763 3.99763 1.52423 7.03795 1.52423H18.9622C22.0023 1.52423 24.4757 3.99763 24.4757 7.03795V18.9622Z" fill="#006DB5"/>
<path d="M18.962 0H7.03795C3.15716 0 0 3.15716 0 7.03795V18.9622C0 22.8428 3.15716 26 7.03795 26H18.9622C22.8428 26 26 22.8428 26 18.9622V7.03795C26 3.15716 22.8428 0 18.962 0V0ZM24.4757 18.9622C24.4757 22.0023 22.0023 24.4757 18.962 24.4757H7.03795C3.99763 24.4757 1.52423 22.0023 1.52423 18.9622V7.03795C1.52423 3.99763 3.99763 1.52423 7.03795 1.52423H18.9622C22.0023 1.52423 24.4757 3.99763 24.4757 7.03795V18.9622Z" fill="#006DB5"/>
<path d="M13 5.89062C9.07997 5.89062 5.89087 9.07972 5.89087 12.9998C5.89087 16.9199 9.07997 20.109 13 20.109C16.9201 20.109 20.1092 16.9199 20.1092 12.9998C20.1092 9.07972 16.9201 5.89062 13 5.89062ZM13 18.5847C9.92063 18.5847 7.4151 16.0794 7.4151 12.9998C7.4151 9.92039 9.92063 7.41485 13 7.41485C16.0796 7.41485 18.585 9.92039 18.585 12.9998C18.585 16.0794 16.0796 18.5847 13 18.5847Z" fill="#006DB5"/>
<path d="M20.2791 3.36621C19.1207 3.36621 18.1785 4.30864 18.1785 5.46688C18.1785 6.62533 19.1207 7.56776 20.2791 7.56776C21.4376 7.56776 22.38 6.62533 22.38 5.46688C22.38 4.30844 21.4376 3.36621 20.2791 3.36621ZM20.2791 6.04333C19.9614 6.04333 19.7027 5.78466 19.7027 5.46688C19.7027 5.14891 19.9614 4.89044 20.2791 4.89044C20.5971 4.89044 20.8558 5.14891 20.8558 5.46688C20.8558 5.78466 20.5971 6.04333 20.2791 6.04333Z" fill="#006DB5"/>
</svg>
