<svg width="28" height="27" viewBox="0 0 28 27" fill="none" xmlns="http://www.w3.org/2000/svg">
<path d="M26.5406 21.2768L22.0967 16.8329C22.9047 15.217 23.4433 13.3317 23.4433 11.4464C23.4433 5.11721 18.3261 0 11.9969 0C5.66774 0 0.550537 5.11721 0.550537 11.4464C0.550537 17.7756 5.66774 22.8928 11.9969 22.8928C13.8822 22.8928 15.7675 22.3541 17.3835 21.5461L21.8273 25.99C23.174 27.3367 25.1939 27.3367 26.5406 25.99C27.7525 24.6434 27.7525 22.6234 26.5406 21.2768ZM11.9969 20.1995C7.14904 20.1995 3.2438 16.2943 3.2438 11.4464C3.2438 6.5985 7.14904 2.69327 11.9969 2.69327C16.8448 2.69327 20.75 6.5985 20.75 11.4464C20.75 16.2943 16.8448 20.1995 11.9969 20.1995Z" fill="#EBEBEB"/>
</svg>
