<svg width="23" height="24" viewBox="0 0 23 24" fill="none" xmlns="http://www.w3.org/2000/svg">
<path d="M18.9501 14.5739C18.4588 14.0458 17.8661 13.7635 17.238 13.7635C16.615 13.7635 16.0173 14.0406 15.5057 14.5686L13.905 16.2154C13.7733 16.1423 13.6416 16.0743 13.515 16.0063C13.3326 15.9122 13.1604 15.8233 13.0135 15.7292C11.5141 14.7464 10.1516 13.4655 8.8447 11.8082C8.21153 10.9822 7.78604 10.2869 7.47705 9.5811C7.89241 9.189 8.27738 8.78121 8.65222 8.38911C8.79405 8.24273 8.93588 8.09112 9.07771 7.94473C10.1414 6.84685 10.1414 5.42483 9.07771 4.32695L7.69487 2.8997C7.53784 2.73763 7.37575 2.57033 7.22379 2.40304C6.91986 2.0789 6.60075 1.74431 6.2715 1.43063C5.78016 0.928738 5.19258 0.662109 4.5746 0.662109C3.95663 0.662109 3.35892 0.928738 2.85238 1.43063C2.84731 1.43586 2.84731 1.43586 2.84225 1.44108L1.12003 3.23429C0.47166 3.90348 0.101889 4.71905 0.0208432 5.66532C-0.100725 7.1919 0.334896 8.61392 0.669209 9.5445C1.4898 11.8291 2.71562 13.9465 4.54421 16.2154C6.76284 18.9497 9.43228 21.1089 12.4816 22.6302C13.6467 23.2001 15.2017 23.8745 16.9391 23.9895C17.0455 23.9947 17.157 24 17.2583 24C18.4284 24 19.411 23.566 20.181 22.7034C20.186 22.693 20.1962 22.6877 20.2012 22.6773C20.4646 22.3479 20.7686 22.0499 21.0877 21.731C21.3055 21.5167 21.5284 21.2918 21.7462 21.0566C22.2476 20.5181 22.511 19.8907 22.511 19.2477C22.511 18.5994 22.2426 17.9773 21.731 17.4545L18.9501 14.5739ZM20.7635 20.079C20.7584 20.079 20.7584 20.0842 20.7635 20.079C20.5659 20.2985 20.3633 20.4972 20.1455 20.7168C19.8163 21.0409 19.482 21.3807 19.1679 21.7624C18.6563 22.327 18.0535 22.5936 17.2633 22.5936C17.1874 22.5936 17.1063 22.5936 17.0303 22.5884C15.5259 22.4891 14.1279 21.8826 13.0793 21.365C10.2123 19.9326 7.69487 17.8989 5.60287 15.3215C3.87558 13.1727 2.72068 11.1861 1.95581 9.05307C1.48473 7.7513 1.31251 6.73706 1.38849 5.78033C1.43914 5.16866 1.66709 4.66154 2.08751 4.22761L3.8148 2.44486C4.063 2.20437 4.3264 2.07367 4.58473 2.07367C4.90385 2.07367 5.16218 2.27234 5.32428 2.43963C5.32934 2.44486 5.33441 2.45009 5.33947 2.45532C5.64846 2.75331 5.94225 3.06177 6.25124 3.39113C6.40826 3.55843 6.57035 3.72573 6.73245 3.89825L8.11529 5.3255C8.65222 5.87967 8.65222 6.39201 8.11529 6.94618C7.96839 7.09779 7.82656 7.24941 7.67967 7.39579C7.25418 7.8454 6.84895 8.26364 6.40826 8.67143C6.39813 8.68188 6.388 8.68711 6.38294 8.69757C5.94732 9.14717 6.02836 9.58633 6.11954 9.88432C6.1246 9.90001 6.12967 9.91569 6.13473 9.93138C6.49437 10.8306 7.00091 11.6775 7.77085 12.6865L7.77591 12.6918C9.17395 14.4693 10.648 15.8547 12.274 16.916C12.4816 17.0519 12.6944 17.1617 12.897 17.2663C13.0793 17.3604 13.2516 17.4493 13.3985 17.5434C13.4187 17.5538 13.439 17.5695 13.4592 17.58C13.6315 17.6688 13.7936 17.7107 13.9607 17.7107C14.3811 17.7107 14.6445 17.4388 14.7307 17.3499L16.463 15.5619C16.6352 15.3842 16.9088 15.1698 17.2279 15.1698C17.5419 15.1698 17.8003 15.3737 17.9573 15.5515C17.9624 15.5567 17.9624 15.5567 17.9674 15.5619L20.7584 18.4426C21.2802 18.9758 21.2802 19.5248 20.7635 20.079Z" fill="#006DB5"/>
</svg>
