<svg width="38" height="29" viewBox="0 0 38 29" fill="none" xmlns="http://www.w3.org/2000/svg">
<circle cx="34.1569" cy="4.71654" r="2.97923" fill="#005D9B"/>
<circle cx="34.1569" cy="14.9997" r="2.97923" fill="#005D9B"/>
<circle cx="34.1569" cy="25.2829" r="2.97923" fill="#005D9B"/>
<path d="M8.36701 18.413C8.62256 17.8101 9.0406 17.3893 9.57629 17.2017C10.1077 17.0157 10.7032 17.0766 11.3031 17.38L13.1782 18.3248C13.2678 18.2222 13.3591 18.1242 13.4461 18.0277C13.5724 17.8919 13.6918 17.7637 13.788 17.6385C14.7624 16.3417 15.5279 14.8283 16.1293 13.0063C16.4136 12.1036 16.5611 11.3758 16.6061 10.6738C16.1305 10.4591 15.6759 10.2218 15.2348 9.99494C15.0685 9.91082 14.9006 9.82219 14.7343 9.73807C13.4871 9.1072 13.0468 7.87868 13.6141 6.61256L14.3515 4.96661C14.4353 4.77971 14.5217 4.58678 14.5995 4.39687C14.7583 4.02609 14.9269 3.64174 15.1106 3.27243C15.3742 2.69212 15.7928 2.28632 16.3199 2.1018C16.8469 1.91727 17.4393 1.96915 18.0267 2.25149C18.0326 2.2545 18.0326 2.2545 18.0386 2.2575L20.0626 3.29246C20.8228 3.67699 21.3907 4.27117 21.7529 5.06448C22.3292 6.34704 22.398 7.70564 22.401 8.60942C22.4086 10.8282 22.0188 13.0235 21.1618 15.5297C20.1162 18.5544 18.508 21.2168 16.3784 23.4417C15.5612 24.2819 14.4438 25.3289 12.9976 25.947C12.9085 25.9833 12.8151 26.0211 12.7287 26.0513C11.7307 26.4007 10.7582 26.3193 9.83447 25.8039C9.82692 25.7964 9.81666 25.7949 9.8091 25.7874C9.48247 25.5815 9.13099 25.4148 8.76007 25.2346C8.50793 25.1144 8.24824 24.9867 7.98963 24.8485C7.3952 24.5331 6.97629 24.0697 6.77718 23.5142C6.57644 22.9541 6.61277 22.3365 6.88723 21.732L8.36701 18.413Z" fill="#006DB5"/>
</svg>
