<svg width="23" height="23" viewBox="0 0 23 23" fill="none" xmlns="http://www.w3.org/2000/svg">
<path d="M18.9501 13.9945C18.4588 13.49 17.8661 13.2203 17.238 13.2203C16.615 13.2203 16.0173 13.485 15.5057 13.9895L13.905 15.5629C13.7733 15.493 13.6416 15.428 13.515 15.3631C13.3326 15.2732 13.1604 15.1883 13.0135 15.0984C11.5141 14.1593 10.1516 12.9356 8.8447 11.3522C8.21153 10.563 7.78604 9.8987 7.47705 9.22439C7.89241 8.84978 8.27738 8.46018 8.65222 8.08556C8.79405 7.9457 8.93588 7.80085 9.07771 7.66099C10.1414 6.61207 10.1414 5.25346 9.07771 4.20454L7.69487 2.84093C7.53784 2.68609 7.37575 2.52626 7.22379 2.36642C6.91986 2.05674 6.60075 1.73707 6.2715 1.43737C5.78016 0.957864 5.19258 0.703125 4.5746 0.703125C3.95663 0.703125 3.35892 0.957864 2.85238 1.43737C2.84731 1.44237 2.84731 1.44237 2.84225 1.44736L1.12003 3.16061C0.47166 3.79995 0.101889 4.57915 0.0208432 5.48323C-0.100725 6.94173 0.334896 8.30034 0.669209 9.18943C1.4898 11.3722 2.71562 13.3951 4.54421 15.5629C6.76284 18.1752 9.43228 20.2381 12.4816 21.6916C13.6467 22.2361 15.2017 22.8804 16.9391 22.9903C17.0455 22.9953 17.157 23.0003 17.2583 23.0003C18.4284 23.0003 19.411 22.5857 20.181 21.7615C20.186 21.7516 20.1962 21.7466 20.2012 21.7366C20.4646 21.4219 20.7686 21.1372 21.0877 20.8325C21.3055 20.6277 21.5284 20.4129 21.7462 20.1882C22.2476 19.6737 22.511 19.0743 22.511 18.4599C22.511 17.8406 22.2426 17.2462 21.731 16.7467L18.9501 13.9945ZM20.7635 19.2541C20.7584 19.2541 20.7584 19.2591 20.7635 19.2541C20.5659 19.4639 20.3633 19.6537 20.1455 19.8635C19.8163 20.1732 19.482 20.4978 19.1679 20.8625C18.6563 21.4019 18.0535 21.6567 17.2633 21.6567C17.1874 21.6567 17.1063 21.6567 17.0303 21.6517C15.5259 21.5568 14.1279 20.9773 13.0793 20.4829C10.2123 19.1143 7.69487 17.1712 5.60287 14.7088C3.87558 12.6559 2.72068 10.7578 1.95581 8.71991C1.48473 7.47618 1.31251 6.50718 1.38849 5.59311C1.43914 5.00871 1.66709 4.52421 2.08751 4.10963L3.8148 2.40638C4.063 2.17661 4.3264 2.05174 4.58473 2.05174C4.90385 2.05174 5.16218 2.24155 5.32428 2.40138C5.32934 2.40638 5.33441 2.41137 5.33947 2.41637C5.64846 2.70108 5.94225 2.99578 6.25124 3.31045C6.40826 3.47029 6.57035 3.63013 6.73245 3.79496L8.11529 5.15856C8.65222 5.68802 8.65222 6.17752 8.11529 6.70697C7.96839 6.85182 7.82656 6.99668 7.67967 7.13653C7.25418 7.56609 6.84895 7.96568 6.40826 8.35528C6.39813 8.36527 6.388 8.37027 6.38294 8.38026C5.94732 8.80982 6.02836 9.22939 6.11954 9.5141C6.1246 9.52908 6.12967 9.54406 6.13473 9.55905C6.49437 10.4182 7.00091 11.2273 7.77085 12.1914L7.77591 12.1963C9.17395 13.8946 10.648 15.2183 12.274 16.2322C12.4816 16.3621 12.6944 16.467 12.897 16.5669C13.0793 16.6568 13.2516 16.7417 13.3985 16.8316C13.4187 16.8416 13.439 16.8566 13.4592 16.8666C13.6315 16.9515 13.7936 16.9914 13.9607 16.9914C14.3811 16.9914 14.6445 16.7317 14.7307 16.6468L16.463 14.9385C16.6352 14.7687 16.9088 14.5639 17.2279 14.5639C17.5419 14.5639 17.8003 14.7587 17.9573 14.9285C17.9624 14.9335 17.9624 14.9335 17.9674 14.9385L20.7584 17.6907C21.2802 18.2002 21.2802 18.7247 20.7635 19.2541Z" fill="#BD1622"/>
</svg>
