<svg width="26" height="26" viewBox="0 0 26 26" fill="none" xmlns="http://www.w3.org/2000/svg">
<path d="M21.2179 8.80766L21.2179 8.80768C21.2984 9.20806 21.1433 9.68027 20.833 10.238C20.5216 10.7975 20.0475 11.4541 19.474 12.2265L19.4338 12.1967L19.474 12.2265C19.1152 12.7096 18.7795 13.1618 18.6116 13.4566C18.5441 13.5753 18.5059 13.6654 18.502 13.7515C18.4983 13.835 18.5267 13.9225 18.611 14.0358C18.7157 14.1673 18.9066 14.3544 19.1429 14.5861C19.1631 14.6059 19.1836 14.626 19.2044 14.6464C19.4679 14.905 19.7774 15.2117 20.0745 15.5475C20.3716 15.8832 20.6573 16.2491 20.8728 16.6264C21.0882 17.0035 21.2352 17.395 21.2512 17.7811C21.2643 18.0986 21.0102 18.3569 20.6938 18.3569H18.1587H18.1583V18.3069C17.837 18.3116 17.2772 18.2311 16.9642 18.0722L21.2179 8.80766ZM21.2179 8.80766C21.1654 8.54687 20.9364 8.35969 20.671 8.35969C20.6697 8.35969 18.172 8.36029 17.25 8.36485M21.2179 8.80766L17.25 8.36485M16.766 8.7733C16.8297 8.55867 17.0265 8.41584 17.2502 8.41485C18.172 8.41029 20.6696 8.40969 20.671 8.40969C20.9126 8.40969 21.1211 8.58009 21.1689 8.81753L16.766 8.7733ZM16.766 8.7733C16.6551 9.14741 16.2221 10.1591 15.6972 11.0852M16.766 8.7733L15.6972 11.0852M17.25 8.36485C17.25 8.36485 17.25 8.36485 17.25 8.36485C17.0049 8.36594 16.7882 8.5226 16.7181 8.75908L16.7181 8.75909C16.6087 9.12826 16.1776 10.1363 15.6537 11.0606C15.3146 11.6591 15.0347 12.0505 14.8211 12.2999C14.6263 12.5274 14.4894 12.6334 14.4152 12.6724C14.3701 12.6061 14.2944 12.438 14.2613 12.038C14.2234 11.5782 14.257 11.0207 14.29 10.4767L14.2905 10.4679C14.3286 9.83963 14.3621 9.28679 14.2813 8.88969L14.282 8.88955L14.279 8.88178C14.2692 8.85617 14.2628 8.81617 14.254 8.76053C14.2526 8.75206 14.2512 8.74322 14.2497 8.73402C14.239 8.66793 14.2249 8.58907 14.1978 8.51087C14.1429 8.35219 14.0332 8.19354 13.7926 8.13935L17.25 8.36485ZM9.58068 8.85347C9.54101 8.65819 9.60879 8.45663 9.75805 8.32481C9.97211 8.13569 10.3954 7.93696 11.7785 7.95067L11.7785 7.95067C12.3626 7.95683 13.1847 8.00227 13.7926 8.13934L9.58067 8.85342C9.58067 8.85344 9.58067 8.85345 9.58068 8.85347ZM9.58068 8.85347C9.62013 9.04866 9.76065 9.20815 9.94957 9.27157M9.58068 8.85347L9.94957 9.27157M10.4741 10.0843C10.5302 10.4824 10.5596 11.1509 10.4987 11.7474M10.4741 10.0843C10.3856 9.46043 10.2752 9.32832 9.96551 9.22418M10.4741 10.0843L10.4246 10.0913M10.4741 10.0843L10.4246 10.0913C10.4246 10.0913 10.4246 10.0913 10.4246 10.0913M10.4987 11.7474L9.9496 9.27158M10.4987 11.7474C10.413 12.5888 10.2089 12.7572 10.1889 12.7709L10.4987 11.7474ZM9.96551 9.22418L9.9496 9.27158M9.96551 9.22418L9.94957 9.27157M9.96551 9.22418L9.94957 9.27157M9.9496 9.27158C10.0995 9.322 10.1918 9.37596 10.2603 9.48581C10.3316 9.60003 10.3804 9.77949 10.4246 10.0913M9.9496 9.27158L8.01757 8.47992L8.06419 8.46183C8.06419 8.46183 8.06419 8.46183 8.06419 8.46184C8.10755 8.57361 8.16106 8.71784 8.22338 8.8858C8.45966 9.52257 8.8225 10.5005 9.23852 11.3444L9.23852 11.3444C9.54368 11.9636 9.77946 12.3072 9.94259 12.4969C10.0616 12.6353 10.1409 12.6905 10.179 12.7116C10.1992 12.6887 10.2341 12.6407 10.2733 12.5498C10.3349 12.4068 10.4065 12.1597 10.449 11.7423L10.449 11.7423C10.5094 11.1501 10.4802 10.4857 10.4246 10.0913M18.1454 17.2464L18.1466 17.2464L18.1467 17.2464H18.1467H18.1467H18.1467H18.1467H18.1467H18.1468H18.1468H18.1468H18.1468H18.1468H18.1468H18.1469H18.1469H18.1469H18.1469H18.1469H18.1469H18.147H18.147H18.147H18.147H18.147H18.147H18.147H18.1471H18.1471H18.1471H18.1471H18.1471H18.1471H18.1472H18.1472H18.1472H18.1472H18.1472H18.1472H18.1473H18.1473H18.1473H18.1473H18.1473H18.1473H18.1474H18.1474H18.1474H18.1474H18.1474H18.1474H18.1475H18.1475H18.1475H18.1475H18.1475H18.1475H18.1475H18.1476H18.1476H18.1476H18.1476H18.1476H18.1476H18.1477H18.1477H18.1477H18.1477H18.1477H18.1477H18.1478H18.1478H18.1478H18.1478H18.1478H18.1478H18.1479H18.1479H18.1479H18.1479H18.1479H18.1479H18.1479H18.148H18.148H18.148H18.148H18.148H18.148H18.1481H18.1481H18.1481H18.1481H18.1481H18.1481H18.1482H18.1482H18.1482H18.1482H18.1482H18.1482H18.1483H18.1483H18.1483H18.1483H18.1483H18.1483H18.1483H18.1484H18.1484H18.1484H18.1484H18.1484H18.1484H18.1485H18.1485H18.1485H18.1485H18.1485H18.1485H18.1486H18.1486H18.1486H18.1486H18.1486H18.1486H18.1486H18.1487H18.1487H18.1487H18.1487H18.1487H18.1487H18.1488H18.1488H18.1488H18.1488H18.1488H18.1488H18.1489H18.1489H18.1489H18.1489H18.1489H18.1489H18.1489H18.149H18.149H18.149H18.149H18.149H18.149H18.1491H18.1491H18.1491H18.1491H18.1491H18.1491H18.1492H18.1492H18.1492H18.1492H18.1492H18.1492H18.1492H18.1493H18.1493H18.1493H18.1493H18.1493H18.1493H18.1494H18.1494H18.1494H18.1494H18.1494H18.1494H18.1495H18.1495H18.1495H18.1495H18.1495H18.1495H18.1495H18.1496H18.1496H18.1496H18.1496H18.1496H18.1496H18.1497H18.1497H18.1497H18.1497H18.1497H18.1497H18.1498H18.1498H18.1498H18.1498H18.1498H18.1498H18.1498H18.1499H18.1499H18.1499H18.1499H18.1499H18.1499H18.15H18.15H18.15H18.15H18.15H18.15H18.1501H18.1501H18.1501H18.1501H18.1501H18.1501H18.1501H18.1502H18.1502H18.1502H18.1502H18.1502H18.1502H18.1503H18.1503H18.1503H18.1503H18.1503H18.1503H18.1503H18.1504H18.1504H18.1504H18.1504H18.1504H18.1504H18.1505H18.1505H18.1505H18.1505H18.1505H18.1505H18.1506H18.1506H18.1506H18.1506H18.1506H18.1506H18.1506H18.1507H18.1507H18.1507H18.1507H18.1507H18.1507H18.1508H18.1508H18.1508H18.1508H18.1508H18.1508H18.1509H18.1509H18.1509H18.1509H18.1509H18.1509H18.1509H18.151H18.151H18.151H18.151H18.151H18.151H18.1511H18.1511H18.1511H18.1511H18.1511H18.1511H18.1511H18.1512H18.1512H18.1512H18.1512H18.1512H18.1512H18.1513H18.1513H18.1513H18.1513H18.1513H18.1513H18.1514H18.1514H18.1514H18.1514H18.1514H18.1514H18.1514H18.1515H18.1515H18.1515H18.1515H18.1515H18.1515H18.1516H18.1516H18.1516H18.1516H18.1516H18.1516H18.1517H18.1517H18.1517H18.1517H18.1517H18.1517H18.1517H18.1518H18.1518H18.1518H18.1518H18.1518H18.1518H18.1519H18.1519H18.1519H18.1519H18.1519H18.1519H18.152H18.152H18.152H18.152H18.152H18.152H18.152H18.1521H18.1521H18.1521H18.1521H18.1521H18.1521H18.1522H18.1522H18.1522H18.1522H18.1522H18.1522H18.1523H18.1523H18.1523H18.1523H18.1523H18.1523H18.1523H18.1524H18.1524H18.1524H18.1524H18.1524H18.1524H18.1525H18.1525H18.1525H18.1525H18.1525H18.1525H18.1526H18.1526H18.1526H18.1526H18.1526H18.1526H18.1526H18.1527H18.1527H18.1527H18.1527H18.1527H18.1527H18.1528H18.1528H18.1528H18.1528H18.1528H18.1528H18.1529H18.1529H18.1529H18.1529H18.1529H18.1529H18.1529H18.153H18.153H18.153H18.153H18.153H18.153H18.1531H18.1531H18.1531H18.1531H18.1531H18.1531H18.1532H18.1532H18.1532H18.1532H18.1532H18.1532H18.1532H18.1533H18.1533H18.1533H18.1533H18.1533H18.1533H18.1534H18.1534H18.1534H18.1534H18.1534H18.1534H18.1535H18.1535H18.1535H18.1535H18.1535H18.1535H18.1536H18.1536H18.1536H18.1536H18.1536H18.1536H18.1536H18.1537H18.1537H18.1537H18.1537H18.1537H18.1537H18.1538H18.1538H18.1538H18.1538H18.1538H18.1538H18.1539H18.1539H18.1539H18.1539H18.1539H18.1539H18.154H18.154H18.154H18.154H18.154H18.154H18.154H18.1541H18.1541H18.1541H18.1541H18.1541H18.1541H18.1542H18.1542H18.1542H18.1542H18.1542H18.1542H18.1543H18.1543H18.1543H18.1543H18.1543H18.1543H18.1544H18.1544H18.1544H18.1544H18.1544H18.1544H18.1545H18.1545H18.1545H18.1545H18.1545H18.1545H18.1545H18.1546H18.1546H18.1546H18.1546H18.1546H18.1546H18.1547H18.1547H18.1547H18.1547H18.1547H18.1547H18.1548H18.1548H19.9415C19.681 16.7576 19.2635 16.2892 18.8464 15.866C18.7056 15.7232 18.5657 15.5863 18.4322 15.4557C18.3582 15.3833 18.2861 15.3127 18.2169 15.2442C18.0237 15.0528 17.8532 14.8767 17.7307 14.721L17.7306 14.721C17.7293 14.7193 17.7274 14.7169 17.7253 14.714L18.1454 17.2464ZM18.1454 17.2464C18.0443 17.2489 17.8989 17.2331 17.7621 17.2083C17.6238 17.1833 17.5028 17.1506 17.4473 17.1223M18.1454 17.2464L17.4473 17.1223M17.4473 17.1223C17.0772 16.9336 16.8168 16.6135 16.5065 16.2307L16.506 16.23C16.2352 15.8954 15.951 15.5443 15.5545 15.2491C15.185 14.9736 14.7859 14.8759 14.4146 14.969C14.0436 15.062 13.7098 15.3431 13.4653 15.806L13.4653 15.806C13.2009 16.3073 13.0932 16.645 13.0473 17.2301C11.1658 17.113 9.68359 16.3651 8.4126 14.8992C7.14213 13.4339 6.17289 11.3463 5.32569 9.22141H7.158C7.53441 10.2348 7.96752 11.3775 8.46173 12.2702C8.71147 12.7214 8.9783 13.1116 9.26341 13.3895C9.54839 13.6674 9.85636 13.8375 10.1873 13.8375C10.5102 13.8375 10.7994 13.7002 11.0226 13.4433C11.2361 13.1976 11.3727 12.8549 11.4588 12.4836C11.5451 12.1116 11.5817 11.7065 11.5924 11.3319C11.6137 10.5826 11.5311 9.9494 11.5291 9.9351L11.5291 9.93506C11.489 9.65112 11.4322 9.34853 11.3022 9.0713C11.9194 9.05253 12.709 9.09146 13.1963 9.16012C13.2147 9.2859 13.218 9.46422 13.2129 9.67166C13.2073 9.89819 13.1917 10.1552 13.1763 10.4092L13.1761 10.4127C13.1388 11.0282 13.1007 11.6588 13.1552 12.2085C13.2097 12.7583 13.3579 13.2386 13.7038 13.5423M17.4473 17.1223L17.7229 14.7107C17.5246 14.4473 17.4077 14.1641 17.3894 13.861C17.3712 13.5577 17.452 13.2387 17.6422 12.9047C17.8439 12.5505 18.1842 12.092 18.5751 11.5657L18.5782 11.5615L18.5782 11.5614C18.6024 11.5289 18.6269 11.4959 18.6519 11.4623C19.1038 10.8546 19.6801 10.0795 19.9724 9.4709C19.4051 9.4706 18.6225 9.47214 17.968 9.47344C17.8573 9.47366 17.7502 9.47387 17.6484 9.47406C17.422 10.059 17.014 10.9342 16.5755 11.6961L16.5322 11.6712L16.5755 11.6961C16.028 12.6474 15.5824 13.1782 15.2185 13.4692C14.8524 13.762 14.5686 13.8123 14.3497 13.8036L14.3517 13.7536L14.3499 13.8036C14.225 13.7991 14.068 13.7369 13.9449 13.6777C13.8822 13.6476 13.8261 13.6172 13.7844 13.5931C13.7635 13.5811 13.746 13.5706 13.733 13.5624C13.7218 13.5553 13.71 13.5477 13.7038 13.5423M13.7038 13.5423C13.7038 13.5422 13.7038 13.5422 13.7038 13.5422L13.7368 13.5047L13.7038 13.5423ZM15.6972 11.0852C15.0167 12.2861 14.5707 12.6624 14.4136 12.7285L15.6972 11.0852ZM7.60755 15.5974C6.07677 13.8322 4.98537 11.3096 4.03422 8.84669L7.60755 15.5974ZM7.60755 15.5974C9.19149 17.4242 11.1466 18.312 13.5845 18.312M7.60755 15.5974L13.5845 18.312M13.5845 18.312C13.865 18.312 14.0923 18.0847 14.0923 17.8042M13.5845 18.312L14.0923 17.8042M14.0923 17.8042C14.0923 16.9282 14.2155 16.6682 14.4077 16.3032L14.0923 17.8042ZM4.08897 8.37637L4.08896 8.37637L4.08897 8.37637Z" fill="#006DB1" stroke="#006DB5" stroke-width="0.1"/>
<path d="M18.962 0H7.03795C3.15716 0 0 3.15716 0 7.03795V18.9622C0 22.8428 3.15716 26 7.03795 26H18.9622C22.8428 26 26 22.8428 26 18.9622V7.03795C26 3.15716 22.8428 0 18.962 0V0ZM24.4757 18.9622C24.4757 22.0023 22.0023 24.4757 18.962 24.4757H7.03795C3.99763 24.4757 1.52423 22.0023 1.52423 18.9622V7.03795C1.52423 3.99763 3.99763 1.52423 7.03795 1.52423H18.9622C22.0023 1.52423 24.4757 3.99763 24.4757 7.03795V18.9622Z" fill="#006DB1"/>
</svg>
